<?xml version="1.0" encoding="UTF-8"?><svg xmlns="http://www.w3.org/2000/svg" xmlns:xlink="http://www.w3.org/1999/xlink" width="419.25pt" zoomAndPan="magnify" viewBox="0 0 419.25 297.75" height="297.75pt" preserveAspectRatio="xMidYMid meet" version="1.2"><defs><clipPath xml:id="clip1" id="clip1"><path d="M 348 119 L 364.375 119 L 364.375 132 L 348 132 Z M 348 119 "/></clipPath><clipPath xml:id="clip2" id="clip2"><path d="M 148 285 L 175 285 L 175 297.359375 L 148 297.359375 Z M 148 285 "/></clipPath><clipPath xml:id="clip3" id="clip3"><path d="M 214 0.140625 L 219 0.140625 L 219 3 L 214 3 Z M 214 0.140625 "/></clipPath><clipPath xml:id="clip4" id="clip4"><path d="M 111 296 L 140 296 L 140 297.359375 L 111 297.359375 Z M 111 296 "/></clipPath><clipPath xml:id="clip5" id="clip5"><path d="M 63 296 L 91 296 L 91 297.359375 L 63 297.359375 Z M 63 296 "/></clipPath></defs><g xml:id="surface1" id="surface1"><path style=" stroke:none;fill-rule:nonzero;fill:rgb(97.24884%,63.139343%,56.079102%);fill-opacity:1;" d="M 306.296875 94.691406 C 311.726562 87.980469 317.183594 94.292969 317.183594 94.292969 C 331.585938 112.367188 348.089844 119.300781 351.148438 121.539062 L 349.535156 124.792969 C 334.367188 122.246094 315.835938 111.945312 307.554688 100.1875 C 307.554688 100.1875 304.597656 96.867188 306.296875 94.691406 "/><g clip-rule="nonzero" clip-path="url(#clip1)"><path style=" stroke:none;fill-rule:nonzero;fill:rgb(97.24884%,63.139343%,56.079102%);fill-opacity:1;" d="M 364.3125 126.699219 C 363.761719 128.871094 358.65625 125.035156 357.476562 124.808594 C 358.707031 125.601562 363.585938 128.265625 363.167969 129.691406 C 362.835938 130.511719 358.828125 127.539062 357.972656 127.140625 C 358.601562 127.75 361.484375 129.753906 360.964844 130.660156 C 360.449219 131.210938 357.765625 129.085938 356.84375 128.582031 C 356.976562 128.820312 359.476562 130.78125 358.886719 131.109375 C 358.339844 131.46875 356.402344 130.371094 355.480469 129.753906 C 351.320312 126.972656 346.640625 124.015625 349.238281 121.769531 C 351.179688 120.085938 352.292969 119.214844 359.65625 119.855469 C 360.925781 119.964844 359.523438 121.816406 356.949219 122.132812 C 357.125 122.753906 364.378906 126.4375 364.3125 126.699219 "/></g><path style=" stroke:none;fill-rule:nonzero;fill:rgb(11.369324%,11.759949%,19.60907%);fill-opacity:1;" d="M 355.527344 122.527344 C 355.59375 122.511719 355.660156 122.496094 355.730469 122.480469 C 356.027344 122.414062 355.652344 122.242188 355.488281 122.277344 C 355.425781 122.292969 355.359375 122.308594 355.296875 122.332031 C 355.253906 122.34375 355.152344 122.382812 355.160156 122.445312 C 355.183594 122.574219 353.949219 123.109375 353.90625 123.109375 C 353.300781 123.058594 352.78125 122.652344 352.285156 122.359375 C 352.140625 122.273438 351.457031 122.355469 351.710938 122.574219 C 352.335938 123.117188 353.425781 123.601562 354.269531 123.460938 C 354.433594 123.429688 354.617188 123.410156 354.769531 123.332031 C 354.972656 123.21875 355.171875 122.945312 355.371094 122.863281 C 355.4375 122.839844 355.699219 122.769531 355.726562 122.675781 C 355.765625 122.554688 355.6875 122.511719 355.777344 122.460938 C 356.007812 122.335938 355.570312 122.222656 355.441406 122.296875 C 355.394531 122.324219 355.347656 122.351562 355.296875 122.378906 C 355.105469 122.488281 355.449219 122.542969 355.527344 122.527344 "/><path style=" stroke:none;fill-rule:nonzero;fill:rgb(97.24884%,63.139343%,56.079102%);fill-opacity:1;" d="M 286.882812 52.167969 L 306.242188 59.480469 L 294.332031 112.863281 L 265.8125 112.863281 L 261.085938 57.78125 L 273.238281 52.140625 L 286.882812 52.167969 "/><path style=" stroke:none;fill-rule:nonzero;fill:rgb(97.24884%,63.139343%,56.079102%);fill-opacity:1;" d="M 241.085938 100.609375 C 241.085938 100.609375 247.578125 100.351562 245.953125 89.636719 C 222.496094 84.59375 207.808594 78.542969 207.808594 78.542969 L 205.542969 81.085938 C 205.542969 81.085938 224.316406 95.515625 241.085938 100.609375 "/><path style=" stroke:none;fill-rule:nonzero;fill:rgb(97.24884%,63.139343%,56.079102%);fill-opacity:1;" d="M 197.164062 67.8125 C 195.339844 69.117188 200.777344 72.472656 201.425781 73.484375 C 200.234375 72.632812 195.972656 69.0625 194.796875 69.976562 C 194.15625 70.578125 198.390625 73.226562 199.074219 73.878906 C 198.273438 73.515625 195.359375 71.5625 194.703125 72.378906 C 194.378906 73.058594 197.335938 74.785156 198.144531 75.457031 C 197.875 75.417969 195.136719 73.808594 195.046875 74.476562 C 194.914062 75.121094 196.640625 76.523438 197.550781 77.160156 C 201.660156 80.011719 206.121094 83.289062 207.261719 80.046875 C 208.117188 77.628906 208.523438 76.269531 205.234375 69.648438 C 204.667969 68.503906 203.457031 70.488281 204.109375 73 C 203.460938 73.0625 197.382812 67.65625 197.164062 67.8125 "/><path style=" stroke:none;fill-rule:nonzero;fill:rgb(11.369324%,11.759949%,19.60907%);fill-opacity:1;" d="M 204.558594 74.527344 C 204.574219 74.464844 204.585938 74.402344 204.601562 74.339844 C 204.632812 74.199219 204.167969 74.167969 204.128906 74.339844 C 204.113281 74.402344 204.105469 74.460938 204.097656 74.527344 C 204.1875 74.480469 204.277344 74.4375 204.367188 74.394531 C 204.230469 74.398438 203.921875 74.390625 203.894531 74.589844 C 203.832031 75.007812 203.628906 75.390625 203.644531 75.8125 C 203.671875 76.644531 204.644531 77.480469 205.316406 77.839844 C 205.457031 77.914062 206.15625 77.832031 205.894531 77.621094 C 205.367188 77.199219 204.859375 76.851562 204.511719 76.25 C 204.355469 75.976562 204.257812 75.542969 204.476562 75.285156 C 204.539062 75.207031 204.554688 74.636719 204.441406 74.652344 C 204.496094 74.644531 204.652344 74.613281 204.640625 74.527344 C 204.628906 74.453125 204.613281 74.378906 204.59375 74.308594 C 204.550781 74.167969 204.085938 74.1875 204.136719 74.371094 C 204.152344 74.429688 204.167969 74.488281 204.1875 74.550781 C 204.21875 74.667969 204.53125 74.636719 204.558594 74.527344 "/><path style=" stroke:none;fill-rule:nonzero;fill:rgb(97.24884%,63.139343%,56.079102%);fill-opacity:1;" d="M 261.847656 73.929688 C 267.199219 63.648438 261.925781 61.285156 261.925781 61.285156 C 256.304688 57.695312 250.375 66.105469 250.375 66.105469 C 250.375 66.105469 240.113281 82.332031 234.519531 93.957031 C 234.519531 93.957031 239.214844 104.101562 244.183594 99.339844 L 261.847656 73.929688 "/><path style=" stroke:none;fill-rule:nonzero;fill:rgb(97.648621%,81.568909%,42.749023%);fill-opacity:1;" d="M 265.636719 55.453125 C 265.636719 55.453125 260.457031 55.382812 255.496094 59.777344 L 238.1875 78.386719 C 238.1875 78.386719 237.097656 87.914062 249.175781 96.203125 L 271.882812 70.433594 C 271.882812 70.433594 274.867188 58.9375 265.636719 55.453125 "/><path style=" stroke:none;fill-rule:nonzero;fill:rgb(97.24884%,63.139343%,56.079102%);fill-opacity:1;" d="M 249.746094 112.886719 C 249.746094 112.886719 260.476562 121.90625 285.945312 131.988281 L 286.640625 135.683594 C 286.640625 135.683594 262.085938 133.714844 246.710938 123.101562 C 243.367188 120.792969 241.53125 118.558594 240.601562 116.273438 L 249.746094 112.886719 "/><path style=" stroke:none;fill-rule:nonzero;fill:rgb(94.119263%,23.919678%,36.079407%);fill-opacity:1;" d="M 250.765625 106.761719 C 250.765625 106.761719 262.761719 118.179688 280.921875 128.34375 C 280.921875 128.34375 283.113281 131.511719 279.746094 135.980469 C 279.746094 135.980469 247.914062 130.828125 239.003906 119.40625 C 239.003906 119.40625 233.445312 106.050781 250.765625 106.761719 "/><path style=" stroke:none;fill-rule:nonzero;fill:rgb(97.24884%,63.139343%,56.079102%);fill-opacity:1;" d="M 300.300781 126.492188 C 301.429688 128.914062 293.835938 129.214844 292.578125 129.890625 C 294.308594 129.699219 300.8125 128.488281 301.496094 130.117188 C 301.808594 131.121094 295.878906 131.394531 294.785156 131.667969 C 295.824219 131.761719 299.988281 131.441406 300.191406 132.667969 C 300.128906 133.5625 296.058594 133.625 294.828125 133.847656 C 295.128906 133.96875 298.90625 133.898438 298.613281 134.644531 C 298.375 135.386719 295.761719 135.835938 294.449219 135.960938 C 288.523438 136.515625 281.984375 137.3125 282.695312 133.28125 C 283.21875 130.273438 283.589844 128.628906 290.863281 123.683594 C 292.121094 122.828125 292.21875 125.59375 290.078125 127.820312 C 290.707031 128.257812 300.167969 126.203125 300.300781 126.492188 "/><path style=" stroke:none;fill-rule:nonzero;fill:rgb(11.369324%,11.759949%,19.60907%);fill-opacity:1;" d="M 289.097656 129.273438 C 289.152344 129.210938 289.203125 129.148438 289.257812 129.085938 C 289.351562 128.972656 288.902344 128.902344 288.800781 129.023438 C 288.746094 129.085938 288.699219 129.148438 288.65625 129.214844 C 288.628906 129.25 288.652344 129.292969 288.679688 129.316406 C 288.90625 129.480469 288.351562 129.828125 288.386719 130.074219 C 288.445312 130.488281 288.210938 130.769531 287.90625 131.023438 C 287.300781 131.53125 286.449219 131.566406 285.703125 131.671875 C 285.28125 131.734375 285.472656 132.019531 285.800781 132.023438 C 286.761719 132.050781 287.910156 131.742188 288.648438 131.113281 C 288.804688 130.980469 288.921875 130.804688 289.015625 130.625 C 289.15625 130.351562 289.019531 130.109375 289.164062 129.84375 C 289.222656 129.738281 289.429688 129.472656 289.351562 129.335938 C 289.253906 129.15625 289.183594 129.308594 289.257812 129.085938 C 289.316406 128.910156 288.847656 128.882812 288.800781 129.023438 C 288.777344 129.089844 288.757812 129.15625 288.734375 129.226562 C 288.679688 129.378906 289.03125 129.351562 289.097656 129.273438 "/><path style=" stroke:none;fill-rule:nonzero;fill:rgb(94.119263%,23.919678%,36.079407%);fill-opacity:1;" d="M 208.800781 42.613281 C 201.914062 41.148438 184.117188 39.585938 181.679688 49.101562 C 180.742188 52.773438 185.003906 55.804688 187.816406 57.085938 C 191.6875 58.851562 196.167969 58.652344 200.324219 58.652344 C 206.035156 58.65625 211.820312 58.542969 217.507812 57.984375 C 219.253906 57.8125 222.660156 56.980469 223.632812 55.363281 C 224.785156 53.445312 223.234375 50.3125 221.921875 48.796875 C 218.789062 45.167969 213.320312 43.574219 208.800781 42.613281 "/><path style=" stroke:none;fill-rule:nonzero;fill:rgb(97.24884%,63.139343%,56.079102%);fill-opacity:1;" d="M 165.945312 272.074219 C 167.824219 277.613281 170.359375 283.417969 170.359375 283.417969 L 163.855469 286.234375 L 158.804688 274.972656 L 165.945312 272.074219 "/><path style=" stroke:none;fill-rule:nonzero;fill:rgb(10.978699%,38.038635%,71.369934%);fill-opacity:1;" d="M 174.035156 285.542969 L 148.703125 296.511719 C 147.753906 293.410156 149.769531 291.753906 149.769531 291.753906 L 156.113281 286.375 L 161 279.574219 L 164.007812 279.695312 C 164.007812 279.695312 164.46875 279.390625 164.496094 280.824219 C 164.496094 280.824219 167.925781 280.117188 169.121094 278.820312 L 174.15625 285.824219 "/><g clip-rule="nonzero" clip-path="url(#clip2)"><path style=" stroke:none;fill-rule:nonzero;fill:rgb(6.269836%,23.139954%,43.919373%);fill-opacity:1;" d="M 174.542969 286.71875 L 149.214844 297.6875 L 148.703125 296.511719 L 174.035156 285.542969 L 174.542969 286.71875 "/></g><path style=" stroke:none;fill-rule:nonzero;fill:rgb(100%,100%,100%);fill-opacity:1;" d="M 154.378906 288.03125 C 155.101562 287.941406 155.828125 288.800781 156.183594 289.316406 C 156.269531 289.4375 156.496094 289.425781 156.617188 289.371094 C 156.660156 289.351562 156.699219 289.328125 156.738281 289.300781 C 156.765625 289.28125 156.785156 289.234375 156.765625 289.207031 C 156.71875 289.144531 156.660156 289.128906 156.589844 289.09375 C 156.523438 289.058594 156.402344 289.058594 156.351562 289.125 C 156.328125 289.15625 156.28125 289.191406 156.289062 289.238281 C 156.328125 289.207031 156.371094 289.171875 156.410156 289.136719 C 156.355469 289.152344 156.304688 289.171875 156.25 289.191406 C 156.394531 289.210938 156.539062 289.230469 156.683594 289.25 C 156.378906 288.785156 155.980469 288.410156 155.507812 288.125 C 155.15625 287.910156 154.625 287.703125 154.238281 287.914062 C 154.105469 287.984375 154.316406 288.039062 154.378906 288.03125 "/><path style=" stroke:none;fill-rule:nonzero;fill:rgb(100%,100%,100%);fill-opacity:1;" d="M 156.265625 286.027344 C 156.511719 286.316406 156.828125 286.535156 157.140625 286.738281 C 157.519531 286.984375 157.820312 287.289062 158.167969 287.566406 C 158.242188 287.625 158.644531 287.652344 158.570312 287.480469 C 158.421875 287.136719 158.015625 286.910156 157.710938 286.714844 C 157.324219 286.476562 156.898438 286.277344 156.558594 285.96875 C 156.5 285.910156 156.199219 285.949219 156.265625 286.027344 "/><path style=" stroke:none;fill-rule:nonzero;fill:rgb(100%,100%,100%);fill-opacity:1;" d="M 157.710938 284.402344 C 158.464844 284.746094 159.105469 285.300781 159.621094 285.949219 C 159.765625 286.128906 160.308594 285.988281 160.136719 285.839844 C 160.042969 285.761719 160 285.730469 159.894531 285.671875 C 159.84375 285.640625 159.722656 285.640625 159.6875 285.695312 C 159.632812 285.792969 159.632812 285.800781 159.609375 285.910156 C 159.792969 285.898438 159.980469 285.886719 160.164062 285.871094 C 159.566406 285.097656 158.796875 284.625 157.882812 284.289062 C 157.8125 284.261719 157.570312 284.335938 157.710938 284.402344 "/><path style=" stroke:none;fill-rule:nonzero;fill:rgb(100%,100%,100%);fill-opacity:1;" d="M 159.1875 281.976562 C 159.503906 282.238281 159.773438 282.542969 160.121094 282.769531 C 160.457031 282.992188 160.757812 283.242188 160.941406 283.613281 C 161.011719 283.757812 161.535156 283.773438 161.515625 283.574219 C 161.507812 283.488281 161.453125 283.460938 161.386719 283.402344 C 161.347656 283.371094 161.179688 283.347656 161.160156 283.417969 C 161.179688 283.421875 161.203125 283.425781 161.222656 283.433594 C 161.316406 283.464844 161.414062 283.5 161.507812 283.539062 C 161.324219 283.160156 161.035156 282.90625 160.691406 282.679688 C 160.28125 282.414062 159.890625 282.113281 159.46875 281.867188 C 159.398438 281.828125 159.0625 281.871094 159.1875 281.976562 "/><path style=" stroke:none;fill-rule:nonzero;fill:rgb(97.24884%,63.139343%,56.079102%);fill-opacity:1;" d="M 193.285156 277.644531 C 193.625 283.484375 193.457031 289.8125 193.457031 289.8125 L 200.539062 289.976562 L 200.992188 277.644531 L 193.285156 277.644531 "/><path style=" stroke:none;fill-rule:nonzero;fill:rgb(10.978699%,38.038635%,71.369934%);fill-opacity:1;" d="M 190.851562 293.167969 L 218.441406 293.804688 C 218.160156 290.570312 215.667969 289.796875 215.667969 289.796875 L 207.769531 287.195312 L 200.6875 282.734375 L 197.945312 283.976562 C 197.945312 283.976562 197.402344 283.863281 197.917969 285.207031 C 197.917969 285.207031 194.472656 285.839844 192.878906 285.089844 L 190.84375 293.476562 "/><path style=" stroke:none;fill-rule:nonzero;fill:rgb(6.269836%,23.139954%,43.919373%);fill-opacity:1;" d="M 190.820312 294.449219 L 218.414062 295.082031 L 218.441406 293.804688 L 190.851562 293.167969 L 190.820312 294.449219 "/><path style=" stroke:none;fill-rule:nonzero;fill:rgb(100%,100%,100%);fill-opacity:1;" d="M 210.046875 287.933594 C 209.066406 287.839844 208.457031 289.230469 208.308594 290.011719 C 208.394531 289.96875 208.476562 289.925781 208.566406 289.882812 C 208.507812 289.882812 208.453125 289.886719 208.394531 289.890625 C 208.496094 289.929688 208.597656 289.96875 208.699219 290.007812 C 208.683594 289.933594 208.644531 289.917969 208.582031 289.867188 C 208.523438 289.8125 208.398438 289.816406 208.339844 289.867188 C 208.316406 289.886719 208.238281 289.929688 208.226562 289.976562 C 208.195312 290.074219 208.316406 290.109375 208.394531 290.121094 C 208.453125 290.128906 208.507812 290.132812 208.566406 290.136719 C 208.65625 290.140625 208.800781 290.113281 208.824219 290.011719 C 208.910156 289.636719 209.027344 289.289062 209.207031 288.953125 C 209.378906 288.636719 209.71875 288.164062 210.082031 288.058594 C 210.199219 288.027344 210.140625 287.941406 210.046875 287.933594 "/><path style=" stroke:none;fill-rule:nonzero;fill:rgb(100%,100%,100%);fill-opacity:1;" d="M 207.191406 286.949219 C 206.847656 287.644531 205.921875 288.277344 205.894531 289.09375 C 205.890625 289.25 206.269531 289.222656 206.328125 289.125 C 206.535156 288.773438 206.679688 288.40625 206.910156 288.0625 C 207.136719 287.726562 207.371094 287.382812 207.5 286.992188 C 207.539062 286.871094 207.234375 286.863281 207.191406 286.949219 "/><path style=" stroke:none;fill-rule:nonzero;fill:rgb(100%,100%,100%);fill-opacity:1;" d="M 205.3125 285.925781 C 204.605469 286.550781 204.078125 287.230469 203.820312 288.152344 C 204 288.152344 204.183594 288.152344 204.363281 288.152344 C 204.304688 288.046875 204.285156 288.027344 204.203125 287.941406 C 204.160156 287.898438 204.035156 287.898438 203.992188 287.941406 C 203.90625 288.027344 203.886719 288.050781 203.820312 288.152344 C 203.714844 288.308594 204.304688 288.425781 204.363281 288.226562 C 204.605469 287.417969 204.984375 286.617188 205.558594 285.996094 C 205.652344 285.894531 205.375 285.867188 205.3125 285.925781 "/><path style=" stroke:none;fill-rule:nonzero;fill:rgb(100%,100%,100%);fill-opacity:1;" d="M 202.933594 284.269531 C 202.648438 284.625 202.414062 285.023438 202.144531 285.394531 C 202.015625 285.566406 201.90625 285.746094 201.816406 285.945312 C 201.792969 285.996094 201.71875 286.457031 201.714844 286.464844 C 201.796875 286.449219 201.882812 286.429688 201.964844 286.414062 C 201.976562 286.410156 201.988281 286.402344 202 286.398438 C 201.957031 286.335938 201.800781 286.335938 201.757812 286.398438 C 201.742188 286.421875 201.730469 286.441406 201.714844 286.464844 C 201.6875 286.492188 201.675781 286.511719 201.691406 286.546875 C 201.695312 286.554688 201.695312 286.558594 201.699219 286.5625 C 201.769531 286.71875 202.257812 286.71875 202.273438 286.527344 C 202.308594 286.125 202.476562 285.796875 202.695312 285.46875 C 202.933594 285.101562 203.082031 284.703125 203.28125 284.316406 C 203.347656 284.1875 202.996094 284.191406 202.933594 284.269531 "/><path style=" stroke:none;fill-rule:nonzero;fill:rgb(5.099487%,19.219971%,36.859131%);fill-opacity:1;" d="M 217.910156 146.339844 L 220.472656 121.722656 L 169.484375 121.722656 L 170.265625 134.746094 C 178.664062 147.300781 184.621094 149.390625 186.347656 157.285156 L 196.09375 196.085938 C 195.582031 227.414062 191.355469 284.292969 191.355469 284.292969 C 198.304688 285.339844 207.234375 283.808594 207.234375 283.808594 L 218.84375 203.191406 L 217.910156 146.339844 "/><path style=" stroke:none;fill-rule:nonzero;fill:rgb(25.489807%,9.799194%,9.01947%);fill-opacity:1;" d="M 221.914062 15.832031 C 225.570312 17.792969 224.628906 21.390625 224.898438 24.992188 C 225.011719 26.472656 225.433594 27.925781 225.617188 29.367188 C 226.5625 27.902344 226.9375 26.152344 227.40625 24.5 C 228.375 21.070312 229.136719 18.054688 228.34375 14.488281 C 227.839844 12.222656 222.347656 9.945312 220.140625 9.242188 C 216.992188 8.246094 216.867188 10.066406 217.582031 13.453125 L 221.914062 15.832031 "/><path style=" stroke:none;fill-rule:nonzero;fill:rgb(5.099487%,19.219971%,36.859131%);fill-opacity:1;" d="M 156.867188 279.597656 C 162.59375 282.722656 172.816406 282.734375 172.816406 282.734375 L 199.996094 156.503906 L 207.234375 130.058594 L 170.136719 130.058594 L 168.703125 153.085938 L 156.867188 279.597656 "/><path style=" stroke:none;fill-rule:nonzero;fill:rgb(97.24884%,63.139343%,56.079102%);fill-opacity:1;" d="M 201.105469 26.425781 C 200.757812 28.671875 201.652344 31.402344 203.546875 32.617188 C 206.113281 34.269531 207.523438 31.894531 207.867188 29.429688 C 208.144531 27.441406 207.75 23.898438 205.597656 22.878906 C 203.566406 21.914062 201.386719 24.585938 201.105469 26.425781 "/><path style=" stroke:none;fill-rule:nonzero;fill:rgb(97.24884%,63.139343%,56.079102%);fill-opacity:1;" d="M 204.8125 32.300781 L 218.28125 34.183594 L 215.941406 50.945312 L 202.46875 49.0625 L 204.8125 32.300781 "/><path style=" stroke:none;fill-rule:nonzero;fill:rgb(96.078491%,48.629761%,43.139648%);fill-opacity:1;" d="M 207.628906 42.152344 C 206.671875 39.125 206.269531 36.144531 206.992188 32.601562 L 218.285156 34.183594 L 216.246094 48.753906 C 212.773438 47.714844 208.648438 45.378906 207.628906 42.152344 "/><path style=" stroke:none;fill-rule:nonzero;fill:rgb(97.24884%,63.139343%,56.079102%);fill-opacity:1;" d="M 205.886719 33.332031 C 206.722656 36.753906 208.109375 39.664062 210.902344 41.96875 C 213.632812 44.222656 216.585938 45.589844 219.800781 43.613281 C 222.359375 42.039062 224.230469 39.480469 225.457031 36.8125 C 228.273438 30.671875 228.046875 21.589844 224.691406 15.855469 C 221.011719 9.554688 212.191406 9.609375 207.96875 15.472656 C 204.53125 20.25 204.535156 27.804688 205.886719 33.332031 "/><path style="fill:none;stroke-width:40.269001;stroke-linecap:round;stroke-linejoin:round;stroke:rgb(96.078491%,48.629761%,43.139648%);stroke-opacity:1;stroke-miterlimit:10;" d="M 9568.051645 16300.019174 C 9626.290108 16258.074945 9635.929578 16143.480903 9586.326473 16029.890312 " transform="matrix(0.0194513,0,0,-0.0194641,17.479015,342.249417)"/><path style="fill:none;stroke-width:40.469002;stroke-linecap:round;stroke-linejoin:round;stroke:rgb(96.078491%,48.629761%,43.139648%);stroke-opacity:1;stroke-miterlimit:10;" d="M 9550.461503 16286.514364 C 9583.358377 16295.388656 9633.813706 16300.02749 9661.059583 16277.236695 " transform="matrix(0.019355,0,0,-0.0193677,17.479015,342.249417)"/><path style=" stroke:none;fill-rule:nonzero;fill:rgb(11.369324%,11.759949%,19.60907%);fill-opacity:1;" d="M 222.386719 27.78125 C 222.332031 28.5 222.632812 29.109375 223.0625 29.144531 C 223.492188 29.179688 223.890625 28.625 223.949219 27.90625 C 224.007812 27.1875 223.703125 26.574219 223.273438 26.539062 C 222.839844 26.503906 222.445312 27.058594 222.386719 27.78125 "/><path style=" stroke:none;fill-rule:nonzero;fill:rgb(11.369324%,11.759949%,19.60907%);fill-opacity:1;" d="M 213.121094 26.488281 C 213.0625 27.210938 213.363281 27.820312 213.792969 27.855469 C 214.226562 27.890625 214.621094 27.335938 214.679688 26.617188 C 214.738281 25.894531 214.4375 25.285156 214.003906 25.25 C 213.574219 25.214844 213.175781 25.769531 213.121094 26.488281 "/><path style=" stroke:none;fill-rule:nonzero;fill:rgb(96.078491%,48.629761%,43.139648%);fill-opacity:1;" d="M 211.347656 29.523438 C 211.308594 30.035156 212.207031 30.527344 213.363281 30.621094 C 214.519531 30.714844 215.488281 30.375 215.53125 29.867188 C 215.574219 29.355469 214.667969 28.863281 213.515625 28.769531 C 212.359375 28.675781 211.390625 29.015625 211.347656 29.523438 "/><path style=" stroke:none;fill-rule:nonzero;fill:rgb(96.078491%,48.629761%,43.139648%);fill-opacity:1;" d="M 221.582031 30.949219 C 221.539062 31.457031 222.441406 31.949219 223.597656 32.042969 C 224.753906 32.136719 225.722656 31.796875 225.765625 31.289062 C 225.808594 30.777344 224.902344 30.285156 223.746094 30.191406 C 222.59375 30.097656 221.621094 30.4375 221.582031 30.949219 "/><path style="fill:none;stroke-width:41.539001;stroke-linecap:round;stroke-linejoin:round;stroke:rgb(96.078491%,48.629761%,43.139648%);stroke-opacity:1;stroke-miterlimit:10;" d="M 10655.810542 16237.816469 C 10589.108633 16228.086885 10481.184117 16249.823189 10434.368491 16299.920195 " transform="matrix(0.0188572,0,0,-0.0188696,17.479015,342.249417)"/><path style="fill:none;stroke-width:41.502998;stroke-linecap:round;stroke-linejoin:round;stroke:rgb(96.078491%,48.629761%,43.139648%);stroke-opacity:1;stroke-miterlimit:10;" d="M 10419.709336 16299.984838 C 10419.709336 16299.984838 10396.31955 16282.402333 10379.139442 16271.645978 " transform="matrix(0.0188718,0,0,-0.0188842,17.479015,342.249417)"/><path style="fill:none;stroke-width:47.917;stroke-linecap:round;stroke-linejoin:round;stroke:rgb(19.219971%,7.058716%,5.879211%);stroke-opacity:1;stroke-miterlimit:10;" d="M 10152.130004 16262.385057 C 10082.227395 16290.128103 9978.17237 16299.908026 9927.243326 16239.831357 " transform="matrix(0.0195585,0,0,-0.0195713,17.479015,342.249417)"/><path style="fill:none;stroke-width:48.064999;stroke-linecap:round;stroke-linejoin:round;stroke:rgb(19.219971%,7.058716%,5.879211%);stroke-opacity:1;stroke-miterlimit:10;" d="M 10456.00115 16262.335026 C 10515.300549 16299.973365 10633.098006 16284.357458 10678.574235 16219.691589 " transform="matrix(0.0194985,0,0,-0.0195114,17.479015,342.249417)"/><path style=" stroke:none;fill-rule:nonzero;fill:rgb(97.24884%,63.139343%,56.079102%);fill-opacity:1;" d="M 221.636719 54.292969 L 216.207031 48.929688 L 202.746094 47.054688 L 194.847656 50.566406 L 221.636719 54.292969 "/><path style=" stroke:none;fill-rule:nonzero;fill:rgb(94.119263%,23.919678%,36.079407%);fill-opacity:1;" d="M 171.941406 58.355469 C 178.410156 52.785156 184.011719 51.839844 184.011719 51.839844 L 202.539062 46.929688 C 211.613281 53.589844 216.246094 48.753906 216.246094 48.753906 L 231.175781 57.703125 C 231.175781 57.703125 234.808594 58.789062 234.125 63.695312 L 229.503906 96.976562 C 228.5 105.324219 224.539062 112.65625 223.535156 121.003906 C 222.945312 125.917969 222.042969 134.605469 220.113281 145.644531 C 220.113281 145.644531 167.972656 144.441406 168.742188 133.238281 C 170.214844 113.191406 173.765625 88.839844 176.75 81.75 "/><path style=" stroke:none;fill-rule:nonzero;fill:rgb(25.489807%,9.799194%,9.01947%);fill-opacity:1;" d="M 204.171875 12.507812 C 206.4375 9.269531 210.332031 7.957031 214.179688 8.113281 C 217.855469 8.261719 225.96875 9.617188 226.601562 13.785156 C 227.65625 20.703125 220.359375 21.40625 216.4375 21.257812 C 215.695312 21.230469 210.558594 20.136719 209.722656 20.351562 C 207.472656 20.925781 207.132812 26.640625 206.757812 28.914062 C 205.839844 28.789062 206.164062 29.191406 205.882812 28.132812 C 205.667969 27.332031 205.714844 24.277344 205.160156 23.625 C 203.832031 22.058594 202.175781 23.835938 201.761719 24.789062 C 201.761719 24.789062 200.765625 18.609375 204.171875 12.507812 "/><path style=" stroke:none;fill-rule:nonzero;fill:rgb(93.328857%,12.548828%,29.019165%);fill-opacity:1;" d="M 220.113281 145.644531 C 220.113281 145.644531 179.136719 143.5625 168.832031 134.496094 L 168.160156 139.335938 C 168.160156 139.335938 184.242188 149.859375 219.003906 149.371094 L 220.113281 145.644531 "/><path style=" stroke:none;fill-rule:nonzero;fill:rgb(97.24884%,63.139343%,56.079102%);fill-opacity:1;" d="M 145.039062 86.832031 C 145.6875 84.429688 148.316406 80.601562 150.164062 78.699219 C 161.363281 67.171875 176.96875 60.917969 182.195312 60.5625 C 183.183594 60.097656 191.847656 62.351562 186.324219 70.074219 C 183.382812 73.847656 156.167969 90.308594 151.824219 91.308594 C 151.824219 91.308594 145.742188 93.441406 145.039062 86.832031 "/><path style=" stroke:none;fill-rule:nonzero;fill:rgb(94.119263%,23.919678%,36.079407%);fill-opacity:1;" d="M 182.304688 80.703125 L 159.796875 93.980469 C 146.417969 97.492188 143.636719 86.546875 143.636719 86.546875 C 147.261719 73.769531 177.019531 54.605469 177.019531 54.605469 C 177.019531 54.605469 198.585938 60.585938 182.304688 80.703125 "/><path style=" stroke:none;fill-rule:nonzero;fill:rgb(96.078491%,48.629761%,43.139648%);fill-opacity:1;" d="M 219.539062 26.050781 C 219.601562 27.4375 219.550781 28.824219 219.628906 30.214844 C 219.679688 30.992188 219.277344 31.269531 218.574219 31.53125 C 218.175781 31.679688 217.777344 31.589844 217.371094 31.714844 C 216.707031 31.921875 217.535156 32.304688 217.914062 32.171875 C 218.121094 32.09375 218.347656 32.1875 218.5625 32.117188 C 218.851562 32.027344 219.136719 31.917969 219.417969 31.796875 C 219.800781 31.632812 220.296875 31.355469 220.40625 30.910156 C 220.558594 30.3125 220.390625 29.613281 220.34375 29.007812 C 220.269531 27.992188 220.144531 27.035156 219.882812 26.050781 C 219.851562 25.941406 219.535156 25.929688 219.539062 26.050781 "/><path style="fill:none;stroke-width:42.991001;stroke-linecap:round;stroke-linejoin:round;stroke:rgb(11.369324%,11.759949%,19.60907%);stroke-opacity:1;stroke-miterlimit:10;" d="M 9394.752483 14877.107916 C 9151.994422 14411.46536 8415.33444 13991.806887 7833.919207 13657.025575 " transform="matrix(0.0181669,0,0,-0.0181788,17.479015,342.249417)"/><path style="fill:none;stroke-width:42.991001;stroke-linecap:round;stroke-linejoin:round;stroke:rgb(11.369324%,11.759949%,19.60907%);stroke-opacity:1;stroke-miterlimit:10;" d="M 11687.945331 14889.570892 C 11789.004932 14359.464669 11711.167537 13737.820038 11606.45259 13210.507241 C 11528.185154 12816.204477 11416.159512 12568.878874 11342.407506 12170.49341 C 11322.410606 12061.764692 11278.116398 11629.213485 11262.849948 11519.625251 " transform="matrix(0.0181669,0,0,-0.0181788,17.479015,342.249417)"/><path style=" stroke:none;fill-rule:nonzero;fill:rgb(94.119263%,23.919678%,36.079407%);fill-opacity:1;" d="M 239.324219 119.84375 L 218.769531 69.183594 C 217.011719 58.914062 228.707031 56.851562 228.707031 56.851562 C 228.707031 56.851562 233.621094 58.085938 235.839844 62.820312 C 235.839844 62.820312 242.289062 69.25 250.144531 103.582031 C 250.144531 103.582031 254.074219 115.808594 239.324219 119.84375 "/><path style="fill:none;stroke-width:42.991001;stroke-linecap:round;stroke-linejoin:round;stroke:rgb(11.369324%,11.759949%,19.60907%);stroke-opacity:1;stroke-miterlimit:10;" d="M 12248.718604 14988.63006 C 12388.05184 14732.709302 12611.458063 13944.318652 12664.568108 13663.9017 C 12701.551622 13469.006546 12745.630809 13272.822119 12826.048449 13090.389941 " transform="matrix(0.0181669,0,0,-0.0181788,17.479015,342.249417)"/><path style="fill:none;stroke-width:42.991001;stroke-linecap:round;stroke-linejoin:round;stroke:rgb(11.369324%,11.759949%,19.60907%);stroke-opacity:1;stroke-miterlimit:10;" d="M 9907.791221 15715.780226 C 9736.634961 15828.161886 9237.14251 15820.641125 9208.974835 16076.991641 " transform="matrix(0.0181669,0,0,-0.0181788,17.479015,342.249417)"/><path style="fill:none;stroke-width:42.991001;stroke-linecap:round;stroke-linejoin:round;stroke:rgb(11.369324%,11.759949%,19.60907%);stroke-opacity:1;stroke-miterlimit:10;" d="M 11164.370593 16195.604789 C 11324.775831 16103.421745 11499.372417 15692.143548 11217.050597 15638.638705 " transform="matrix(0.0181669,0,0,-0.0181788,17.479015,342.249417)"/><path style="fill:none;stroke-width:42.867001;stroke-linecap:round;stroke-linejoin:round;stroke:rgb(11.369324%,11.759949%,19.60907%);stroke-opacity:1;stroke-miterlimit:10;" d="M 9941.101638 16300.037674 C 9819.323209 16291.038858 9738.70932 16227.832888 9798.312142 16103.349267 " transform="matrix(0.0182196,0,0,-0.0182316,17.479015,342.249417)"/><path style="fill:none;stroke-width:42.991001;stroke-linecap:round;stroke-linejoin:round;stroke:rgb(11.369324%,11.759949%,19.60907%);stroke-opacity:1;stroke-miterlimit:10;" d="M 10928.708205 15751.020364 L 10632.840099 13622.000316 " transform="matrix(0.0181669,0,0,-0.0181788,17.479015,342.249417)"/><path style="fill:none;stroke-width:42.991001;stroke-linecap:round;stroke-linejoin:round;stroke:rgb(11.369324%,11.759949%,19.60907%);stroke-opacity:1;stroke-miterlimit:10;" d="M 10375.245628 15827.947007 L 10079.1625 13698.926959 " transform="matrix(0.0181669,0,0,-0.0181788,17.479015,342.249417)"/><path style="fill:none;stroke-width:42.991001;stroke-linecap:round;stroke-linejoin:round;stroke:rgb(11.369324%,11.759949%,19.60907%);stroke-opacity:1;stroke-miterlimit:10;" d="M 10420.614938 12407.289948 C 9911.231547 12537.936313 9367.229868 13238.871254 9211.7701 13703.869174 " transform="matrix(0.0181669,0,0,-0.0181788,17.479015,342.249417)"/><path style="fill:none;stroke-width:42.991001;stroke-linecap:round;stroke-linejoin:round;stroke:rgb(11.369324%,11.759949%,19.60907%);stroke-opacity:1;stroke-miterlimit:10;" d="M 9403.3533 12895.924545 C 9477.750368 12494.960535 9526.775025 12136.112788 9485.921144 11929.399295 " transform="matrix(0.0181669,0,0,-0.0181788,17.479015,342.249417)"/><path style="fill:none;stroke-width:42.991001;stroke-linecap:round;stroke-linejoin:round;stroke:rgb(7.839966%,28.239441%,53.329468%);stroke-opacity:1;stroke-miterlimit:10;" d="M 9184.032465 10747.135639 C 9184.032465 10324.253982 8754.421653 9955.092048 8367.169865 10020.844989 " transform="matrix(0.0181669,0,0,-0.0181788,17.479015,342.249417)"/><path style=" stroke:none;fill-rule:nonzero;fill:rgb(97.24884%,63.139343%,56.079102%);fill-opacity:1;" d="M 151.664062 90.90625 C 154.042969 92.179688 136.277344 83.933594 119.886719 55.003906 L 122.777344 52.601562 C 125.757812 55.140625 135.835938 70.027344 157.09375 81.25 C 157.09375 81.25 158.503906 82.511719 151.664062 90.90625 "/><path style=" stroke:none;fill-rule:nonzero;fill:rgb(94.119263%,23.919678%,36.079407%);fill-opacity:1;" d="M 161.097656 77.542969 C 161.097656 77.542969 149.898438 66.207031 129.046875 57.511719 C 129.046875 57.511719 123.117188 59.4375 122.3125 63.992188 C 122.3125 63.992188 138.234375 86.027344 148.289062 92.507812 C 148.289062 92.507812 159.429688 94.96875 161.097656 77.542969 "/><path style="fill:none;stroke-width:42.991001;stroke-linecap:round;stroke-linejoin:round;stroke:rgb(11.369324%,11.759949%,19.60907%);stroke-opacity:1;stroke-miterlimit:10;" d="M 6141.27841 15663.134898 C 6424.030271 15537.860505 6660.122699 15455.776769 6859.446634 15338.667773 C 7045.654324 15229.079539 7223.906257 15115.408606 7392.697292 14991.638365 " transform="matrix(0.0181669,0,0,-0.0181788,17.479015,342.249417)"/><path style=" stroke:none;fill-rule:nonzero;fill:rgb(97.24884%,63.139343%,56.079102%);fill-opacity:1;" d="M 111.445312 42.714844 C 109.292969 44.292969 115.808594 48.210938 116.589844 49.410156 C 115.164062 48.410156 110.039062 44.21875 108.660156 45.320312 C 107.902344 46.050781 112.972656 49.140625 113.800781 49.910156 C 112.84375 49.488281 109.34375 47.203125 108.574219 48.183594 C 108.199219 48.996094 111.742188 51.007812 112.710938 51.800781 C 112.394531 51.757812 109.109375 49.878906 109.011719 50.675781 C 108.863281 51.441406 110.9375 53.089844 112.03125 53.832031 C 116.960938 57.171875 122.3125 61.011719 123.628906 57.136719 C 124.609375 54.246094 125.074219 52.625 121.070312 44.789062 C 120.382812 43.4375 118.96875 45.8125 119.777344 48.796875 C 119.011719 48.878906 111.703125 42.527344 111.445312 42.714844 "/><path style=" stroke:none;fill-rule:nonzero;fill:rgb(11.369324%,11.759949%,19.60907%);fill-opacity:1;" d="M 120.296875 50.609375 C 120.3125 50.535156 120.324219 50.460938 120.339844 50.382812 C 120.367188 50.238281 119.894531 50.214844 119.863281 50.382812 C 119.851562 50.460938 119.84375 50.535156 119.835938 50.609375 C 119.925781 50.5625 120.015625 50.519531 120.109375 50.476562 C 119.96875 50.480469 119.625 50.46875 119.597656 50.683594 C 119.539062 51.183594 119.308594 51.640625 119.335938 52.144531 C 119.382812 53.132812 120.539062 54.085938 121.332031 54.511719 C 121.476562 54.589844 122.167969 54.492188 121.90625 54.292969 C 121.265625 53.808594 120.652344 53.382812 120.238281 52.667969 C 120.046875 52.34375 119.917969 51.824219 120.183594 51.503906 C 120.253906 51.414062 120.234375 50.726562 120.179688 50.734375 C 120.234375 50.726562 120.390625 50.695312 120.378906 50.609375 C 120.367188 50.53125 120.355469 50.460938 120.339844 50.382812 C 120.296875 50.214844 119.832031 50.246094 119.863281 50.382812 C 119.882812 50.460938 119.902344 50.535156 119.917969 50.609375 C 119.949219 50.734375 120.273438 50.742188 120.296875 50.609375 "/><path style=" stroke:none;fill-rule:nonzero;fill:rgb(19.219971%,7.058716%,5.879211%);fill-opacity:1;" d="M 230.5625 11.308594 C 229.246094 10.085938 228.667969 10.871094 227.863281 10.214844 C 227.078125 9.578125 227.265625 9.65625 226.78125 8.894531 C 226.078125 7.789062 225.285156 8.207031 224.140625 8.253906 C 223.054688 8.300781 222.148438 8.070312 221.203125 7.617188 C 219.421875 6.769531 217.859375 4.265625 215.660156 5.003906 C 214.679688 5.328125 213.855469 6.210938 212.941406 6.601562 C 211.925781 7.03125 210.808594 7.097656 209.785156 7.542969 C 205.660156 9.320312 202.890625 9.867188 205.105469 14.617188 C 206.082031 16.714844 207.769531 19.53125 209.605469 20.410156 C 211.371094 21.257812 214.050781 21.660156 216 21.457031 C 219.078125 21.128906 222.152344 21.226562 224.792969 19.289062 C 227.527344 17.28125 230.015625 15.234375 230.5625 11.308594 "/><path style="fill:none;stroke-width:42.991001;stroke-linecap:round;stroke-linejoin:round;stroke:rgb(7.839966%,28.239441%,53.329468%);stroke-opacity:1;stroke-miterlimit:10;" d="M 10935.373839 9873.652949 C 10709.38737 10055.010732 10490.496576 10314.369553 10490.926617 10609.183391 " transform="matrix(0.0181669,0,0,-0.0181788,17.479015,342.249417)"/><path style="fill:none;stroke-width:42.991001;stroke-linecap:round;stroke-linejoin:round;stroke:rgb(7.839966%,28.239441%,53.329468%);stroke-opacity:1;stroke-miterlimit:10;" d="M 9946.494897 10632.820069 C 9910.156445 10190.814191 9946.494897 9964.331841 9559.67315 10031.374054 " transform="matrix(0.0181669,0,0,-0.0181788,17.479015,342.249417)"/><path style="fill:none;stroke-width:42.991001;stroke-linecap:round;stroke-linejoin:round;stroke:rgb(7.839966%,28.239441%,53.329468%);stroke-opacity:1;stroke-miterlimit:10;" d="M 9831.88901 10077.143258 C 9722.228593 9070.005898 9628.049646 8409.468188 9517.529147 7760.748818 C 9394.752483 7040.689655 9231.336959 6475.128415 9086.413191 5760.870983 C 9020.401921 5434.255069 8827.958639 4548.739161 8754.421653 4219.759579 " transform="matrix(0.0181669,0,0,-0.0181788,17.479015,342.249417)"/><path style=" stroke:none;fill-rule:nonzero;fill:rgb(71.369934%,13.328552%,15.289307%);fill-opacity:1;" d="M 207.253906 14.796875 C 212.097656 18.234375 221.859375 24.777344 227.257812 25.472656 C 229.015625 25.699219 239.902344 24.261719 240.679688 22.015625 C 241.25 20.375 232.167969 16.476562 231.132812 14.726562 C 231.132812 14.726562 228.773438 11.710938 222.015625 11.59375 C 222.015625 11.59375 203.929688 10.355469 207.253906 14.796875 "/><path style=" stroke:none;fill-rule:nonzero;fill:rgb(84.709167%,16.079712%,18.818665%);fill-opacity:1;" d="M 213.089844 18.175781 C 210.839844 18.058594 209.644531 19.570312 202.527344 16.929688 C 203.050781 10.949219 206.121094 3.101562 212.8125 2.226562 C 218.914062 1.425781 223.851562 2.167969 228.050781 6.972656 C 229.339844 8.449219 230.769531 10.113281 232.117188 15.5625 C 232.117188 15.5625 232.363281 16.84375 224.835938 18.035156 C 224.835938 18.035156 218.8125 18.472656 213.089844 18.175781 "/><g clip-rule="nonzero" clip-path="url(#clip3)"><path style=" stroke:none;fill-rule:nonzero;fill:rgb(84.709167%,16.079712%,18.818665%);fill-opacity:1;" d="M 214.980469 1.421875 C 213.5 2.921875 216.410156 2.933594 217.273438 2.582031 C 219.648438 1.609375 216.234375 0.164062 214.980469 1.421875 "/></g><path style=" stroke:none;fill-rule:nonzero;fill:rgb(9.01947%,13.729858%,27.059937%);fill-opacity:1;" d="M 300.136719 28.03125 C 299.972656 31.441406 300.46875 34.511719 302.535156 37.414062 C 303.976562 39.433594 306.863281 39.496094 307.234375 42.195312 C 307.746094 45.886719 304.703125 49.339844 301.503906 50.640625 C 297.851562 52.121094 295.949219 51.292969 293.453125 48.789062 C 290.714844 46.046875 291.339844 42.925781 292.179688 39.550781 C 292.972656 36.375 293.074219 32.949219 292.914062 29.601562 C 292.644531 24.042969 289.628906 22.144531 285.882812 18.851562 C 284.183594 17.355469 280.59375 14.082031 283.742188 12.015625 C 285.769531 10.683594 288.765625 12.871094 290.605469 13.777344 C 295.953125 16.425781 300.445312 21.75 300.136719 28.03125 "/><path style=" stroke:none;fill-rule:nonzero;fill:rgb(9.01947%,13.729858%,27.059937%);fill-opacity:1;" d="M 290.136719 9.910156 C 288.605469 7.769531 285.128906 6.800781 282.722656 7.273438 C 277.597656 8.28125 279.371094 12.929688 282.460938 15.300781 C 283.925781 16.425781 285.796875 17.28125 287.660156 16.632812 C 290.382812 15.683594 291.875 12.347656 290.136719 9.910156 "/><path style=" stroke:none;fill-rule:nonzero;fill:rgb(9.01947%,13.729858%,27.059937%);fill-opacity:1;" d="M 274.808594 48.152344 C 273.1875 51.035156 269.828125 50.988281 267.136719 50.113281 C 265.707031 49.648438 264.082031 49.109375 262.457031 49.328125 C 260.917969 49.535156 259.503906 50.324219 257.964844 50.3125 C 256.503906 50.300781 255.089844 50.429688 254.015625 49.335938 C 252.832031 48.132812 252.734375 46.585938 253.234375 45.179688 C 254.03125 42.945312 255.410156 43.722656 256.75 42.242188 C 258.878906 39.902344 258.394531 35.441406 258.605469 32.511719 C 258.976562 27.226562 261.144531 11.964844 269.484375 13.566406 C 274.3125 14.496094 275.152344 21.507812 275.882812 25.488281 C 276.613281 29.476562 275.570312 33.609375 275.390625 37.605469 C 275.242188 40.949219 276.546875 45.070312 274.808594 48.152344 "/><path style=" stroke:none;fill-rule:nonzero;fill:rgb(9.01947%,13.729858%,27.059937%);fill-opacity:1;" d="M 268.566406 42.363281 C 274.230469 46.480469 280.402344 43.132812 285.554688 39.726562 C 290.78125 36.269531 293.941406 27.953125 292.769531 21.894531 C 291.761719 16.683594 288.238281 12.707031 283.179688 11.109375 C 279.339844 9.902344 272.855469 9.210938 269.242188 11.335938 C 260.542969 16.449219 259.871094 30.152344 264.664062 38.039062 C 265.679688 39.707031 266.976562 41.210938 268.566406 42.363281 "/><path style=" stroke:none;fill-rule:nonzero;fill:rgb(97.24884%,63.139343%,56.079102%);fill-opacity:1;" d="M 308.191406 199.449219 C 310.257812 201.214844 323.519531 213.253906 357.074219 258.210938 L 353.574219 261.46875 L 304.9375 215.886719 C 301.808594 213.5625 298.660156 211.09375 295.492188 208.363281 L 308.191406 199.449219 "/><path style=" stroke:none;fill-rule:nonzero;fill:rgb(6.269836%,8.628845%,14.898682%);fill-opacity:1;" d="M 362.527344 260.316406 L 348.105469 277.355469 C 346.300781 275.449219 347.171875 273.527344 347.171875 273.527344 L 349.835938 267.351562 L 350.941406 260.671875 L 353.160156 259.675781 C 353.160156 259.675781 353.390625 259.289062 353.925781 260.320312 C 353.925781 260.320312 356.15625 258.578125 356.554688 257.207031 L 362.714844 260.476562 "/><path style=" stroke:none;fill-rule:nonzero;fill:rgb(10.978699%,15.289307%,25.878906%);fill-opacity:1;" d="M 363.269531 260.976562 L 348.847656 278.015625 L 348.058594 277.34375 L 362.480469 260.308594 L 363.269531 260.976562 "/><path style=" stroke:none;fill-rule:nonzero;fill:rgb(100%,100%,100%);fill-opacity:1;" d="M 349.101562 269.867188 C 349.644531 269.585938 350.316406 269.839844 350.808594 270.113281 C 350.929688 270.179688 351.152344 270.171875 351.242188 270.058594 C 351.261719 270.039062 351.273438 270.015625 351.28125 269.992188 C 351.308594 269.933594 351.265625 269.898438 351.21875 269.875 C 351.042969 269.777344 350.890625 269.832031 350.769531 269.960938 C 350.90625 269.949219 351.039062 269.941406 351.175781 269.933594 C 350.785156 269.707031 350.335938 269.554688 349.882812 269.523438 C 349.578125 269.503906 349.023438 269.472656 348.863281 269.800781 C 348.8125 269.902344 349.0625 269.894531 349.101562 269.867188 "/><path style=" stroke:none;fill-rule:nonzero;fill:rgb(100%,100%,100%);fill-opacity:1;" d="M 349.699219 267.710938 C 349.925781 267.804688 350.167969 267.847656 350.410156 267.886719 C 350.832031 267.953125 351.230469 268.023438 351.640625 268.140625 C 351.703125 268.160156 352.105469 268.109375 351.941406 267.996094 C 351.34375 267.585938 350.558594 267.777344 349.890625 267.585938 C 349.816406 267.566406 349.535156 267.644531 349.699219 267.710938 "/><path style=" stroke:none;fill-rule:nonzero;fill:rgb(100%,100%,100%);fill-opacity:1;" d="M 350.226562 266.023438 C 350.875 266.003906 351.503906 266.160156 352.09375 266.4375 C 352.308594 266.535156 352.792969 266.324219 352.433594 266.21875 C 352.347656 266.191406 352.28125 266.179688 352.191406 266.167969 C 352.148438 266.160156 352.070312 266.164062 352.042969 266.207031 C 352.011719 266.261719 352.007812 266.273438 352.011719 266.335938 C 352.171875 266.304688 352.332031 266.273438 352.492188 266.238281 C 351.75 265.886719 350.996094 265.800781 350.1875 265.886719 C 350.023438 265.902344 350.097656 266.027344 350.226562 266.023438 "/><path style=" stroke:none;fill-rule:nonzero;fill:rgb(100%,100%,100%);fill-opacity:1;" d="M 350.375 263.726562 C 350.632812 263.785156 350.882812 263.882812 351.140625 263.933594 C 351.507812 264 351.859375 264.007812 352.167969 264.238281 C 352.304688 264.34375 352.875 264.261719 352.671875 264.09375 C 352.605469 264.039062 352.558594 264.023438 352.472656 263.996094 C 352.433594 263.980469 352.304688 263.972656 352.289062 264.03125 C 352.285156 264.035156 352.28125 264.039062 352.273438 264.042969 C 352.40625 264.058594 352.539062 264.078125 352.671875 264.09375 C 352.390625 263.878906 352.078125 263.78125 351.726562 263.726562 C 351.328125 263.664062 350.914062 263.59375 350.511719 263.566406 C 350.40625 263.558594 350.15625 263.679688 350.375 263.726562 "/><path style=" stroke:none;fill-rule:nonzero;fill:rgb(97.24884%,63.139343%,56.079102%);fill-opacity:1;" d="M 274.359375 206.738281 C 278.660156 190.390625 287.210938 164.289062 290.386719 148.769531 L 261.738281 148.769531 C 261.152344 154.824219 260.699219 174.371094 259.15625 201.414062 C 258.273438 216.855469 259.761719 251.347656 261.738281 284.722656 L 266.054688 284.960938 L 267.207031 275.839844 C 274.214844 226.585938 274.359375 206.738281 274.359375 206.738281 "/><path style=" stroke:none;fill-rule:nonzero;fill:rgb(6.269836%,8.628845%,14.898682%);fill-opacity:1;" d="M 268.363281 290.511719 L 246.046875 290.578125 C 246.300781 287.96875 248.320312 287.359375 248.320312 287.359375 L 254.722656 285.3125 L 260.480469 281.757812 L 262.6875 282.777344 C 262.6875 282.777344 263.128906 282.695312 262.703125 283.777344 C 262.703125 283.777344 265.484375 284.3125 266.777344 283.71875 L 268.363281 290.511719 "/><path style=" stroke:none;fill-rule:nonzero;fill:rgb(10.978699%,15.289307%,25.878906%);fill-opacity:1;" d="M 268.375 291.519531 L 246.058594 291.59375 L 246.054688 290.554688 L 268.371094 290.480469 L 268.375 291.519531 "/><path style=" stroke:none;fill-rule:nonzero;fill:rgb(100%,100%,100%);fill-opacity:1;" d="M 252.363281 286.515625 C 252.617188 286.605469 252.84375 286.933594 252.984375 287.152344 C 253.164062 287.4375 253.257812 287.765625 253.328125 288.089844 C 253.351562 288.195312 253.496094 288.21875 253.589844 288.214844 C 253.640625 288.214844 253.691406 288.210938 253.742188 288.203125 C 253.8125 288.1875 253.945312 288.15625 253.910156 288.054688 C 253.855469 287.890625 253.492188 287.886719 253.441406 288.054688 C 253.542969 288.027344 253.640625 288 253.742188 287.976562 C 253.691406 287.96875 253.640625 287.960938 253.589844 287.964844 C 253.675781 288.003906 253.761719 288.046875 253.847656 288.089844 C 253.734375 287.445312 253.214844 286.273438 252.398438 286.386719 C 252.300781 286.398438 252.25 286.476562 252.363281 286.515625 "/><path style=" stroke:none;fill-rule:nonzero;fill:rgb(100%,100%,100%);fill-opacity:1;" d="M 254.445312 285.664062 C 254.53125 285.945312 254.6875 286.207031 254.84375 286.453125 C 255.042969 286.757812 255.171875 287.101562 255.363281 287.394531 C 255.429688 287.492188 255.789062 287.527344 255.796875 287.367188 C 255.808594 287.035156 255.550781 286.726562 255.363281 286.472656 C 255.160156 286.191406 254.910156 285.9375 254.753906 285.621094 C 254.707031 285.53125 254.40625 285.539062 254.445312 285.664062 "/><path style=" stroke:none;fill-rule:nonzero;fill:rgb(100%,100%,100%);fill-opacity:1;" d="M 256.027344 284.875 C 256.472656 285.382812 256.757812 286.039062 256.945312 286.683594 C 257.011719 286.902344 257.597656 286.738281 257.492188 286.609375 C 257.421875 286.527344 257.40625 286.507812 257.320312 286.445312 C 257.265625 286.402344 257.164062 286.402344 257.109375 286.445312 C 257.027344 286.507812 257.007812 286.527344 256.945312 286.609375 C 257.132812 286.621094 257.316406 286.632812 257.5 286.644531 C 257.292969 285.875 256.863281 285.324219 256.277344 284.800781 C 256.214844 284.746094 255.9375 284.769531 256.027344 284.875 "/><path style=" stroke:none;fill-rule:nonzero;fill:rgb(100%,100%,100%);fill-opacity:1;" d="M 257.867188 283.527344 C 258.003906 283.816406 258.09375 284.125 258.265625 284.390625 C 258.457031 284.679688 258.617188 284.964844 258.644531 285.320312 C 258.660156 285.523438 259.242188 285.511719 259.230469 285.320312 C 259.132812 285.269531 259.035156 285.222656 258.9375 285.175781 C 259.035156 285.222656 259.132812 285.269531 259.230469 285.320312 C 259.210938 285 259.097656 284.738281 258.925781 284.476562 C 258.699219 284.140625 258.472656 283.789062 258.214844 283.480469 C 258.152344 283.40625 257.808594 283.390625 257.867188 283.527344 "/><path style=" stroke:none;fill-rule:nonzero;fill:rgb(9.01947%,13.729858%,27.059937%);fill-opacity:1;" d="M 295.921875 129.460938 L 277.605469 206.957031 L 270.367188 283.554688 C 263.664062 283.917969 254.597656 281.441406 254.597656 281.441406 L 254.597656 195.082031 L 260.699219 121.21875 C 260.699219 121.21875 295.320312 103.480469 295.921875 129.460938 "/><path style=" stroke:none;fill-rule:nonzero;fill:rgb(97.648621%,81.568909%,42.749023%);fill-opacity:1;" d="M 261.085938 63.429688 C 259.914062 66.476562 256.90625 73.703125 257.492188 76.769531 C 258.171875 80.324219 259.667969 82.402344 261.085938 85.742188 L 264.539062 110.179688 L 297.34375 110.179688 L 301.808594 91.101562 C 303.183594 87.921875 303.238281 83.613281 303.972656 80.269531 C 304.402344 78.324219 304.757812 76.898438 305 75.425781 C 305.640625 72.867188 306.320312 70.1875 306.269531 67.835938 C 306.761719 66.78125 307.3125 65.730469 307.5625 64.753906 C 308.085938 62.671875 307.792969 60.164062 305.738281 59.226562 C 303.914062 58.390625 302.117188 57.75 300.230469 57.050781 C 297.15625 55.917969 291.246094 53.738281 288.175781 52.609375 C 277.1875 62.066406 270.980469 53.148438 270.980469 53.148438 L 264.085938 56.125 L 261.085938 63.429688 "/><path style="fill:none;stroke-width:42.991001;stroke-linecap:round;stroke-linejoin:round;stroke:rgb(11.369324%,11.759949%,19.60907%);stroke-opacity:1;stroke-miterlimit:10;" d="M 14433.111116 14412.324876 C 14442.787035 14217.214843 14550.082228 13978.699275 14645.766318 13813.672287 C 14710.917507 13701.290627 14864.012051 13487.486131 14962.276386 13447.948415 " transform="matrix(0.0181669,0,0,-0.0181788,17.479015,342.249417)"/><path style="fill:none;stroke-width:42.991001;stroke-linecap:round;stroke-linejoin:round;stroke:rgb(11.369324%,11.759949%,19.60907%);stroke-opacity:1;stroke-miterlimit:10;" d="M 14327.106046 13581.173327 C 14490.73659 13401.749453 14822.728129 13200.622812 15032.803086 13204.92039 " transform="matrix(0.0181669,0,0,-0.0181788,17.479015,342.249417)"/><path style=" stroke:none;fill-rule:nonzero;fill:rgb(97.24884%,63.139343%,56.079102%);fill-opacity:1;" d="M 312.703125 100.410156 C 315.664062 99.261719 316.082031 96.210938 315.515625 91.90625 C 314.566406 84.6875 310.683594 65.21875 306.863281 61.894531 C 306.367188 60.957031 298.375 57.625 298.125 66.8125 C 298.191406 71.441406 303.367188 88.503906 303.96875 91.882812 C 303.96875 91.882812 304.925781 102.144531 312.703125 100.410156 "/><path style=" stroke:none;fill-rule:nonzero;fill:rgb(97.24884%,63.139343%,56.079102%);fill-opacity:1;" d="M 290.605469 29.554688 C 290.773438 31.820312 289.660156 34.464844 287.671875 35.527344 C 284.980469 36.960938 283.765625 34.484375 283.625 32 C 283.507812 29.996094 284.1875 26.492188 286.414062 25.652344 C 288.519531 24.859375 290.476562 27.695312 290.605469 29.554688 "/><path style=" stroke:none;fill-rule:nonzero;fill:rgb(97.24884%,63.139343%,56.079102%);fill-opacity:1;" d="M 273.335938 52.414062 L 286.9375 52.414062 L 286.9375 35.488281 L 273.335938 35.488281 L 273.335938 52.414062 "/><path style=" stroke:none;fill-rule:nonzero;fill:rgb(96.078491%,48.629761%,43.139648%);fill-opacity:1;" d="M 282.785156 44.859375 C 284.148438 41.992188 284.964844 39.09375 284.738281 35.488281 L 273.335938 35.488281 L 273.335938 50.199219 C 276.914062 49.652344 281.328125 47.910156 282.785156 44.859375 "/><path style=" stroke:none;fill-rule:nonzero;fill:rgb(97.24884%,63.139343%,56.079102%);fill-opacity:1;" d="M 285.28125 36.050781 C 284.171875 39.394531 282.550781 42.179688 279.582031 44.25 C 276.679688 46.277344 273.625 47.402344 270.578125 45.167969 C 268.15625 43.394531 266.5 40.691406 265.496094 37.933594 C 263.183594 31.582031 264.148438 22.550781 267.953125 17.105469 C 272.132812 11.125 280.914062 11.894531 284.648438 18.082031 C 287.691406 23.121094 287.078125 30.652344 285.28125 36.050781 "/><path style="fill:none;stroke-width:40.645;stroke-linecap:round;stroke-linejoin:round;stroke:rgb(96.078491%,48.629761%,43.139648%);stroke-opacity:1;stroke-miterlimit:10;" d="M 14050.995654 16300.015773 C 13988.767834 16262.541608 13969.714365 16148.093486 14010.253661 16029.796665 " transform="matrix(0.0192714,0,0,-0.0192841,17.479015,342.249417)"/><path style="fill:none;stroke-width:40.844002;stroke-linecap:round;stroke-linejoin:round;stroke:rgb(96.078491%,48.629761%,43.139648%);stroke-opacity:1;stroke-miterlimit:10;" d="M 14177.245941 16279.547836 C 14145.062135 16291.354368 14094.545782 16299.903925 14065.417401 16279.344275 " transform="matrix(0.019177,0,0,-0.0191896,17.479015,342.249417)"/><path style=" stroke:none;fill-rule:nonzero;fill:rgb(11.369324%,11.759949%,19.60907%);fill-opacity:1;" d="M 269.292969 29.328125 C 269.292969 30.050781 268.945312 30.632812 268.511719 30.632812 C 268.078125 30.632812 267.730469 30.050781 267.730469 29.328125 C 267.730469 28.605469 268.078125 28.023438 268.511719 28.023438 C 268.941406 28.023438 269.292969 28.605469 269.292969 29.328125 "/><path style=" stroke:none;fill-rule:nonzero;fill:rgb(11.369324%,11.759949%,19.60907%);fill-opacity:1;" d="M 278.664062 29.328125 C 278.664062 30.050781 278.316406 30.632812 277.882812 30.632812 C 277.449219 30.632812 277.097656 30.050781 277.097656 29.328125 C 277.097656 28.609375 277.449219 28.023438 277.882812 28.023438 C 278.316406 28.023438 278.664062 28.605469 278.664062 29.328125 "/><path style="fill:none;stroke-width:40.729;stroke-linecap:round;stroke-linejoin:round;stroke:rgb(96.078491%,48.629761%,43.139648%);stroke-opacity:1;stroke-miterlimit:10;" d="M 13277.88136 16299.992499 C 13264.272472 16171.300631 13255.944645 16142.070932 13233.804813 16116.494945 C 13222.633338 16103.300984 13139.964424 16073.868301 13135.495834 16056.208691 C 13127.168007 16023.122296 13169.619612 15975.015083 13257.569587 15968.31661 " transform="matrix(0.0192315,0,0,-0.0192441,17.479015,342.249417)"/><path style=" stroke:none;fill-rule:nonzero;fill:rgb(96.078491%,48.629761%,43.139648%);fill-opacity:1;" d="M 280.183594 32.402344 C 280.183594 32.914062 279.242188 33.332031 278.082031 33.332031 C 276.925781 33.332031 275.980469 32.914062 275.980469 32.402344 C 275.980469 31.890625 276.925781 31.472656 278.082031 31.472656 C 279.242188 31.472656 280.183594 31.890625 280.183594 32.402344 "/><path style=" stroke:none;fill-rule:nonzero;fill:rgb(96.078491%,48.629761%,43.139648%);fill-opacity:1;" d="M 269.832031 32.402344 C 269.832031 32.914062 268.894531 33.332031 267.734375 33.332031 C 266.574219 33.332031 265.632812 32.914062 265.632812 32.402344 C 265.632812 31.890625 266.574219 31.472656 267.734375 31.472656 C 268.894531 31.472656 269.832031 31.890625 269.832031 32.402344 "/><path style="fill:none;stroke-width:60.400002;stroke-linecap:round;stroke-linejoin:round;stroke:rgb(9.01947%,13.729858%,27.059937%);stroke-opacity:1;stroke-miterlimit:10;" d="M 13522.83803 16245.104663 C 13487.18927 16289.787237 13384.472503 16300.052153 13329.287416 16256.778489 " transform="matrix(0.019395,0,0,-0.0194077,17.479015,342.249417)"/><path style="fill:none;stroke-width:60.400002;stroke-linecap:round;stroke-linejoin:round;stroke:rgb(9.01947%,13.729858%,27.059937%);stroke-opacity:1;stroke-miterlimit:10;" d="M 13034.631278 16245.104663 C 12998.982518 16289.787237 12896.064346 16300.052153 12841.080664 16256.778489 " transform="matrix(0.019395,0,0,-0.0194077,17.479015,342.249417)"/><path style=" stroke:none;fill-rule:nonzero;fill:rgb(9.01947%,13.729858%,27.059937%);fill-opacity:1;" d="M 282.914062 26.296875 C 284.777344 27.117188 285.613281 28.347656 285.921875 28.507812 C 286.015625 28.554688 285.921875 28.507812 285.921875 28.507812 C 285.972656 27.339844 286.6875 26.296875 288.058594 26.164062 C 289.042969 26.070312 290.074219 27.507812 290.417969 28.484375 C 290.421875 27.433594 290.304688 25.929688 290.257812 24.816406 C 290.203125 23.757812 290.074219 22.621094 289.878906 21.542969 C 289.425781 19.035156 289.144531 17.660156 287.792969 15.359375 C 286.347656 12.882812 284.203125 11.023438 281.285156 10.472656 C 277.765625 9.808594 272.066406 9.4375 269.246094 11.742188 C 267.800781 12.925781 272.828125 11.03125 273.335938 15.777344 C 273.335938 15.777344 273.335938 22.753906 282.914062 26.296875 "/><path style="fill:none;stroke-width:42.991001;stroke-linecap:round;stroke-linejoin:round;stroke:rgb(11.369324%,11.759949%,19.60907%);stroke-opacity:1;stroke-miterlimit:10;" d="M 13606.787617 12778.385792 C 13853.846087 12606.482679 14259.374612 12620.664686 14552.662473 12620.664686 C 14877.128297 12620.664686 15078.172396 12677.177834 15369.310053 12763.988906 " transform="matrix(0.0181669,0,0,-0.0181788,17.479015,342.249417)"/><path style="fill:none;stroke-width:42.991001;stroke-linecap:round;stroke-linejoin:round;stroke:rgb(11.369324%,11.759949%,19.60907%);stroke-opacity:1;stroke-miterlimit:10;" d="M 13345.107758 14802.544941 C 13308.984327 14651.270202 13260.17469 14523.202383 13283.181875 14361.828337 C 13302.963755 14222.371937 13432.621072 13928.202735 13455.198217 13787.242183 C 13496.052098 13531.966061 13483.795933 13585.256026 13538.626142 13125.844958 " transform="matrix(0.0181669,0,0,-0.0181788,17.479015,342.249417)"/><path style=" stroke:none;fill-rule:nonzero;fill:rgb(100%,100%,100%);fill-opacity:1;" d="M 270.265625 37.050781 L 275.929688 35.878906 C 275.929688 35.878906 275.929688 39.199219 273.390625 39.785156 C 273.390625 39.785156 271.046875 40.566406 270.265625 37.050781 "/><path style=" stroke:none;fill-rule:nonzero;fill:rgb(9.01947%,13.729858%,27.059937%);fill-opacity:1;" d="M 285.101562 199.382812 L 275.457031 149.21875 L 260.699219 121.21875 L 263.433594 103.636719 C 263.433594 103.636719 269.296875 111.386719 298.773438 105.003906 L 304.792969 119.34375 C 304.792969 119.34375 309.304688 128.894531 306.242188 152.113281 L 307.789062 194.550781 C 307.789062 194.550781 290.996094 213.050781 285.101562 199.382812 "/><path style="fill:none;stroke-width:42.991001;stroke-linecap:round;stroke-linejoin:round;stroke:rgb(14.509583%,22.349548%,43.139648%);stroke-opacity:1;stroke-miterlimit:10;" d="M 14697.801261 8040.306254 C 14564.058556 8547.205557 14158.530032 11001.767124 14133.372642 11593.113831 " transform="matrix(0.0181669,0,0,-0.0181788,17.479015,342.249417)"/><path style=" stroke:none;fill-rule:nonzero;fill:rgb(97.648621%,81.568909%,42.749023%);fill-opacity:1;" d="M 316.800781 88.953125 C 311.855469 97.292969 300.140625 94.425781 300.140625 94.425781 C 295.257812 82.574219 294.742188 65.796875 294.742188 65.796875 C 297.234375 55.386719 302.777344 57.953125 302.777344 57.953125 C 308.828125 59.226562 311.269531 65.769531 311.269531 65.769531 C 311.269531 65.769531 313.9375 75.148438 316.800781 88.953125 "/><path style="fill:none;stroke-width:42.991001;stroke-linecap:round;stroke-linejoin:round;stroke:rgb(11.369324%,11.759949%,19.60907%);stroke-opacity:1;stroke-miterlimit:10;" d="M 15491.226635 15544.091993 C 15322.865641 15406.569503 15243.953144 15307.080576 15215.140407 15112.185423 C 15186.32767 14916.430753 15354.903684 14305.959825 15451.662876 13983.641489 " transform="matrix(0.0181669,0,0,-0.0181788,17.479015,342.249417)"/><path style="fill:none;stroke-width:42.991001;stroke-linecap:round;stroke-linejoin:round;stroke:rgb(14.509583%,22.349548%,43.139648%);stroke-opacity:1;stroke-miterlimit:10;" d="M 13942.004462 3456.294881 C 14065.426187 4536.276185 14283.026858 6898.869587 14318.720249 7442.298302 L 14585.990639 8532.808671 " transform="matrix(0.0181669,0,0,-0.0181788,17.479015,342.249417)"/><path style=" stroke:none;fill-rule:nonzero;fill:rgb(9.01947%,13.729858%,27.059937%);fill-opacity:1;" d="M 272.117188 20.117188 C 270.605469 21.5 269.414062 22.039062 267.53125 22.828125 C 266.8125 23.128906 266.15625 23.390625 265.601562 23.953125 C 265.132812 24.433594 264.675781 25.515625 264.253906 26.570312 C 263.640625 28.117188 263.429688 22.636719 263.429688 21.804688 C 263.429688 18.382812 265.394531 14.886719 267.820312 12.667969 C 268.742188 11.824219 270.289062 11.335938 271.535156 11.324219 C 272.296875 11.316406 273.773438 11.257812 274.363281 11.839844 C 274.960938 12.433594 274.585938 13.398438 274.511719 14.1875 C 274.324219 16.273438 273.730469 18.644531 272.117188 20.117188 "/><path style=" stroke:none;fill-rule:nonzero;fill:rgb(9.01947%,13.729858%,27.059937%);fill-opacity:1;" d="M 295.996094 25.726562 C 296.527344 29.042969 296.003906 32.378906 295.84375 35.648438 C 295.679688 39.050781 296.300781 41.351562 297.550781 44.289062 C 298.632812 46.816406 299.976562 51.269531 296.234375 52.253906 C 294.703125 52.65625 293.027344 51.828125 291.546875 51.675781 C 289.910156 51.507812 288.328125 51.882812 286.667969 51.867188 C 284.261719 51.84375 279.988281 51.207031 279.640625 48.347656 C 279.257812 45.269531 282.5625 42.207031 283.152344 39.359375 C 283.648438 36.96875 283.683594 34.496094 283.207031 32.128906 C 282.714844 29.695312 283.632812 27.167969 282.71875 24.75 C 281.808594 22.339844 280.042969 20.683594 279.628906 18.066406 C 279.464844 17.0625 279.203125 15.632812 279.441406 14.546875 C 279.695312 13.417969 280.371094 12.890625 280.84375 11.84375 C 282.960938 11.714844 284.191406 11.46875 286.015625 12.554688 C 287.664062 13.535156 289.261719 14.832031 290.664062 16.132812 C 293.460938 18.726562 295.386719 21.929688 295.996094 25.726562 "/><path style="fill:none;stroke-width:42.991001;stroke-linecap:round;stroke-linejoin:round;stroke:rgb(14.509583%,22.349548%,43.139648%);stroke-opacity:1;stroke-miterlimit:10;" d="M 15464.779122 12731.327315 C 15122.251583 12586.069185 14858.63654 12538.795829 14544.706717 12537.936313 C 14227.551588 12537.291677 13914.696868 12547.176106 13581.200186 12665.144616 " transform="matrix(0.0181669,0,0,-0.0181788,17.479015,342.249417)"/><path style="fill:none;stroke-width:42.991001;stroke-linecap:round;stroke-linejoin:round;stroke:rgb(14.509583%,22.349548%,43.139648%);stroke-opacity:1;stroke-miterlimit:10;" d="M 14004.360386 12366.033201 C 14004.360386 12115.484414 14008.230753 11871.167116 14020.701938 11622.981997 C 14086.068148 11619.758814 14153.154521 11620.833208 14219.165792 11620.833208 C 14256.794366 11620.833208 14420.209891 11620.833208 14376.775764 11620.833208 " transform="matrix(0.0181669,0,0,-0.0181788,17.479015,342.249417)"/><path style="fill:none;stroke-width:42.991001;stroke-linecap:round;stroke-linejoin:round;stroke:rgb(14.509583%,22.349548%,43.139648%);stroke-opacity:1;stroke-miterlimit:10;" d="M 15093.438846 12595.308977 C 15109.780398 12123.005176 15160.95526 11584.733555 15768.818005 11591.179921 C 15784.084456 11602.99826 15762.582413 11602.568502 15766.882822 11620.833208 " transform="matrix(0.0181669,0,0,-0.0181788,17.479015,342.249417)"/><path style="fill:none;stroke-width:42.991001;stroke-linecap:round;stroke-linejoin:round;stroke:rgb(14.509583%,22.349548%,43.139648%);stroke-opacity:1;stroke-miterlimit:10;" d="M 13731.929505 12623.887869 C 13761.817345 12405.570917 13679.03448 12128.162269 13459.713645 12079.384761 " transform="matrix(0.0181669,0,0,-0.0181788,17.479015,342.249417)"/><path style=" stroke:none;fill-rule:nonzero;fill:rgb(9.01947%,13.729858%,27.059937%);fill-opacity:1;" d="M 304.015625 187.132812 L 356.421875 249.863281 C 355.863281 256.796875 344.453125 262.90625 344.453125 262.90625 L 287.78125 203.710938 C 287.78125 203.710938 277.878906 196.050781 304.015625 187.132812 "/><path style=" stroke:none;fill-rule:nonzero;fill:rgb(77.249146%,27.449036%,16.859436%);fill-opacity:1;" d="M 94.609375 37.710938 C 93.738281 35.753906 94.96875 34.664062 95.003906 32.789062 C 95.035156 31.414062 94.128906 30.226562 93.570312 29.015625 C 92.328125 26.316406 93.523438 22.535156 95.402344 20.421875 C 96.984375 18.636719 98.722656 16.011719 101.25 15.597656 C 103.757812 15.1875 105.863281 17.363281 106.710938 19.488281 C 108.636719 24.304688 109 28.769531 106.574219 33.453125 C 106.0625 34.445312 105.5 35.320312 105.640625 36.441406 C 105.898438 38.519531 107.417969 39.636719 106.8125 41.933594 C 106.386719 43.550781 105.441406 44.5 103.734375 44.253906 C 100.488281 43.78125 95.941406 40.710938 94.609375 37.710938 "/><path style=" stroke:none;fill-rule:nonzero;fill:rgb(77.249146%,27.449036%,16.859436%);fill-opacity:1;" d="M 123.386719 18.402344 C 124.3125 19.117188 124.84375 20.050781 124.949219 21.226562 C 125.125 23.203125 123.917969 24.800781 124.140625 26.824219 C 124.34375 28.652344 124.910156 30.605469 124.457031 32.488281 C 123.921875 34.738281 121.757812 34.8125 120.378906 33.269531 C 119.226562 31.980469 119.179688 30.273438 119.183594 28.609375 C 119.1875 26.265625 119.378906 24.175781 118.308594 22.011719 C 117.707031 20.792969 116.382812 19.414062 116.863281 17.953125 C 117.886719 14.832031 121.953125 17.296875 123.386719 18.402344 "/><path style=" stroke:none;fill-rule:nonzero;fill:rgb(97.24884%,63.139343%,56.079102%);fill-opacity:1;" d="M 159.511719 111.085938 C 160.132812 108.675781 160.425781 103.757812 159.070312 101.480469 C 152.734375 90.832031 142.707031 72.550781 140.183594 69.875 C 139.550781 68.980469 127.378906 70.269531 128.371094 79.71875 C 129.0625 84.453125 141.671875 105.359375 149.058594 110.488281 C 149.058594 110.488281 154.621094 115.3125 159.511719 111.085938 "/><path style=" stroke:none;fill-rule:nonzero;fill:rgb(25.099182%,36.079407%,70.199585%);fill-opacity:1;" d="M 137.058594 105.960938 C 143.234375 102.648438 153.835938 86.679688 153.835938 86.679688 C 139.667969 66.234375 142.671875 70.28125 135.914062 61.582031 C 132.707031 57.453125 126.570312 55.429688 126.570312 55.429688 L 116.832031 52.445312 C 116.832031 52.445312 115.710938 64.21875 119.59375 73.835938 C 119.59375 73.835938 122.359375 87.765625 137.058594 105.960938 "/><path style="fill:none;stroke-width:42.991001;stroke-linecap:round;stroke-linejoin:round;stroke:rgb(11.369324%,11.759949%,19.60907%);stroke-opacity:1;stroke-miterlimit:10;" d="M 4778.048906 10588.769897 C 4648.82163 10134.301043 4236.627472 9841.850873 3774.763596 9857.751911 " transform="matrix(0.0181669,0,0,-0.0181788,17.479015,342.249417)"/><path style=" stroke:none;fill-rule:nonzero;fill:rgb(97.24884%,63.139343%,56.079102%);fill-opacity:1;" d="M 122.433594 276.117188 L 121.097656 292.960938 L 114.015625 292.960938 L 112.457031 276.09375 L 122.433594 276.117188 "/><path style=" stroke:none;fill-rule:nonzero;fill:rgb(71.369934%,17.248535%,25.099182%);fill-opacity:1;" d="M 111.484375 296.371094 L 139.082031 296.378906 C 138.722656 293.152344 136.21875 292.4375 136.21875 292.4375 L 128.265625 290.015625 L 121.082031 285.714844 L 118.367188 287.019531 C 118.367188 287.019531 117.824219 286.921875 118.367188 288.253906 C 118.367188 288.253906 114.9375 288.964844 113.328125 288.25 L 111.484375 296.679688 "/><g clip-rule="nonzero" clip-path="url(#clip4)"><path style=" stroke:none;fill-rule:nonzero;fill:rgb(52.549744%,12.159729%,17.649841%);fill-opacity:1;" d="M 111.484375 297.652344 L 139.082031 297.660156 L 139.082031 296.378906 L 111.484375 296.371094 L 111.484375 297.652344 "/></g><path style=" stroke:none;fill-rule:nonzero;fill:rgb(100%,100%,100%);fill-opacity:1;" d="M 130.558594 290.703125 C 129.570312 290.628906 129 292.023438 128.863281 292.8125 C 128.949219 292.773438 129.035156 292.726562 129.121094 292.6875 C 129.066406 292.6875 129.007812 292.691406 128.953125 292.699219 C 129.054688 292.738281 129.15625 292.777344 129.257812 292.8125 C 129.238281 292.738281 129.203125 292.722656 129.136719 292.671875 C 129.078125 292.621094 128.953125 292.621094 128.894531 292.671875 C 128.832031 292.722656 128.792969 292.738281 128.773438 292.8125 C 128.753906 292.886719 128.910156 292.921875 128.953125 292.929688 C 129.007812 292.9375 129.066406 292.9375 129.121094 292.941406 C 129.210938 292.941406 129.359375 292.917969 129.382812 292.8125 C 129.460938 292.414062 129.582031 292.042969 129.773438 291.679688 C 129.9375 291.382812 130.25 290.9375 130.59375 290.832031 C 130.707031 290.796875 130.65625 290.707031 130.558594 290.703125 "/><path style=" stroke:none;fill-rule:nonzero;fill:rgb(100%,100%,100%);fill-opacity:1;" d="M 127.679688 289.78125 C 127.351562 290.484375 126.441406 291.132812 126.429688 291.953125 C 126.429688 292.105469 126.804688 292.082031 126.863281 291.980469 C 127.0625 291.628906 127.203125 291.253906 127.421875 290.910156 C 127.640625 290.5625 127.867188 290.214844 127.988281 289.820312 C 128.023438 289.703125 127.722656 289.6875 127.679688 289.78125 "/><path style=" stroke:none;fill-rule:nonzero;fill:rgb(100%,100%,100%);fill-opacity:1;" d="M 125.777344 288.796875 C 125.074219 289.453125 124.570312 290.152344 124.328125 291.089844 C 124.511719 291.078125 124.695312 291.066406 124.882812 291.054688 C 124.816406 290.953125 124.800781 290.929688 124.714844 290.84375 C 124.671875 290.800781 124.546875 290.800781 124.503906 290.84375 C 124.417969 290.929688 124.398438 290.953125 124.335938 291.054688 C 124.242188 291.207031 124.824219 291.339844 124.890625 291.089844 C 125.109375 290.292969 125.476562 289.496094 126.023438 288.867188 C 126.113281 288.765625 125.835938 288.738281 125.777344 288.796875 "/><path style=" stroke:none;fill-rule:nonzero;fill:rgb(100%,100%,100%);fill-opacity:1;" d="M 123.363281 287.195312 C 123.082031 287.558594 122.859375 287.960938 122.597656 288.335938 C 122.472656 288.511719 122.367188 288.695312 122.285156 288.894531 C 122.246094 288.980469 122.207031 289.40625 122.191406 289.417969 C 122.277344 289.402344 122.363281 289.382812 122.445312 289.367188 C 122.457031 289.363281 122.464844 289.359375 122.476562 289.351562 C 122.433594 289.292969 122.277344 289.285156 122.234375 289.351562 C 122.210938 289.382812 122.191406 289.414062 122.167969 289.445312 C 122.160156 289.464844 122.160156 289.484375 122.167969 289.503906 C 122.171875 289.507812 122.175781 289.511719 122.179688 289.515625 C 122.265625 289.648438 122.742188 289.691406 122.753906 289.476562 C 122.777344 289.078125 122.941406 288.746094 123.148438 288.410156 C 123.378906 288.039062 123.519531 287.636719 123.710938 287.246094 C 123.773438 287.113281 123.425781 287.117188 123.363281 287.195312 "/><path style=" stroke:none;fill-rule:nonzero;fill:rgb(97.24884%,63.139343%,56.079102%);fill-opacity:1;" d="M 79.796875 276.125 L 81.085938 292.972656 L 88.171875 292.988281 L 89.773438 276.125 L 79.796875 276.125 "/><path style=" stroke:none;fill-rule:nonzero;fill:rgb(71.369934%,17.248535%,25.099182%);fill-opacity:1;" d="M 90.695312 296.40625 L 63.09375 296.34375 C 63.460938 293.117188 65.96875 292.410156 65.96875 292.410156 L 73.929688 290.007812 L 81.121094 285.726562 L 83.832031 287.035156 C 83.832031 287.035156 84.378906 286.941406 83.828125 288.269531 C 83.828125 288.269531 87.257812 288.988281 88.871094 288.28125 L 90.691406 296.714844 "/><g clip-rule="nonzero" clip-path="url(#clip5)"><path style=" stroke:none;fill-rule:nonzero;fill:rgb(52.549744%,12.159729%,17.649841%);fill-opacity:1;" d="M 90.691406 297.6875 L 63.09375 297.625 L 63.09375 296.34375 L 90.695312 296.40625 L 90.691406 297.6875 "/></g><path style=" stroke:none;fill-rule:nonzero;fill:rgb(100%,100%,100%);fill-opacity:1;" d="M 71.597656 290.816406 C 71.953125 290.925781 72.238281 291.371094 72.414062 291.671875 C 72.621094 292.019531 72.726562 292.410156 72.804688 292.804688 C 72.824219 292.910156 72.972656 292.933594 73.0625 292.929688 C 73.121094 292.929688 73.179688 292.925781 73.238281 292.917969 C 73.277344 292.914062 73.433594 292.878906 73.414062 292.804688 C 73.394531 292.730469 73.359375 292.714844 73.292969 292.660156 C 73.234375 292.609375 73.109375 292.609375 73.050781 292.660156 C 72.988281 292.714844 72.949219 292.730469 72.929688 292.804688 C 73.03125 292.765625 73.132812 292.726562 73.238281 292.6875 C 73.179688 292.679688 73.121094 292.675781 73.0625 292.675781 C 73.148438 292.71875 73.238281 292.761719 73.324219 292.804688 C 73.191406 292.011719 72.621094 290.617188 71.632812 290.6875 C 71.535156 290.695312 71.488281 290.785156 71.597656 290.816406 "/><path style=" stroke:none;fill-rule:nonzero;fill:rgb(100%,100%,100%);fill-opacity:1;" d="M 74.207031 289.816406 C 74.3125 290.167969 74.507812 290.496094 74.707031 290.804688 C 74.949219 291.183594 75.105469 291.589844 75.328125 291.976562 C 75.382812 292.078125 75.757812 292.101562 75.757812 291.949219 C 75.75 291.128906 74.839844 290.476562 74.515625 289.773438 C 74.472656 289.679688 74.167969 289.695312 74.207031 289.816406 "/><path style=" stroke:none;fill-rule:nonzero;fill:rgb(100%,100%,100%);fill-opacity:1;" d="M 76.171875 288.867188 C 76.71875 289.496094 77.082031 290.292969 77.300781 291.09375 C 77.367188 291.339844 77.949219 291.207031 77.855469 291.054688 C 77.789062 290.953125 77.773438 290.933594 77.6875 290.847656 C 77.644531 290.804688 77.519531 290.804688 77.476562 290.847656 C 77.390625 290.933594 77.371094 290.953125 77.308594 291.054688 C 77.496094 291.070312 77.679688 291.078125 77.863281 291.09375 C 77.625 290.152344 77.121094 289.453125 76.421875 288.796875 C 76.359375 288.738281 76.085938 288.765625 76.171875 288.867188 "/><path style=" stroke:none;fill-rule:nonzero;fill:rgb(100%,100%,100%);fill-opacity:1;" d="M 78.492188 287.246094 C 78.660156 287.605469 78.773438 287.988281 78.988281 288.320312 C 79.222656 288.683594 79.417969 289.046875 79.441406 289.484375 C 79.453125 289.699219 79.929688 289.65625 80.015625 289.523438 C 80.019531 289.519531 80.023438 289.515625 80.027344 289.511719 C 80.035156 289.492188 80.035156 289.472656 80.027344 289.453125 C 80.003906 289.421875 79.984375 289.390625 79.960938 289.359375 C 79.914062 289.292969 79.792969 289.308594 79.734375 289.34375 C 79.738281 289.355469 79.746094 289.367188 79.75 289.375 C 79.835938 289.390625 79.917969 289.410156 80.003906 289.425781 C 80 289.421875 79.972656 289.078125 79.957031 289.03125 C 79.886719 288.816406 79.789062 288.632812 79.667969 288.445312 C 79.402344 288.027344 79.136719 287.589844 78.839844 287.203125 C 78.773438 287.121094 78.429688 287.117188 78.492188 287.246094 "/><path style=" stroke:none;fill-rule:nonzero;fill:rgb(3.529358%,16.468811%,30.198669%);fill-opacity:1;" d="M 79.839844 162.214844 C 78.769531 158.039062 79.71875 147.039062 79.945312 145.914062 L 82.027344 130.023438 L 131.085938 130.519531 L 132.265625 150.386719 L 131.648438 162.214844 L 79.839844 162.214844 "/><path style=" stroke:none;fill-rule:nonzero;fill:rgb(3.529358%,16.468811%,30.198669%);fill-opacity:1;" d="M 75.539062 281.660156 L 79.253906 203.636719 L 79.164062 153.726562 C 82.289062 132.628906 113.742188 143.046875 113.742188 143.046875 L 113.601562 152.746094 L 101.015625 212.097656 L 91.808594 287.164062 C 91.808594 287.164062 80.699219 287.980469 75.539062 281.660156 "/><path style="fill:none;stroke-width:42.991001;stroke-linecap:round;stroke-linejoin:round;stroke:rgb(11.369324%,11.759949%,19.60907%);stroke-opacity:1;stroke-miterlimit:10;" d="M 6104.079876 11344.713834 C 5373.225447 11301.738056 5287.217276 11323.225945 4914.586877 11330.316948 C 4713.112737 11334.399647 4212.330164 11301.738056 3653.492076 11387.904491 " transform="matrix(0.0181669,0,0,-0.0181788,17.479015,342.249417)"/><path style="fill:none;stroke-width:42.991001;stroke-linecap:round;stroke-linejoin:round;stroke:rgb(11.369324%,11.759949%,19.60907%);stroke-opacity:1;stroke-miterlimit:10;" d="M 4470.354676 10972.113837 C 4270.81572 10594.356748 4011.286065 10399.031836 3581.890274 10399.031836 " transform="matrix(0.0181669,0,0,-0.0181788,17.479015,342.249417)"/><path style=" stroke:none;fill-rule:nonzero;fill:rgb(3.529358%,16.468811%,30.198669%);fill-opacity:1;" d="M 132.265625 150.386719 L 125.898438 287.164062 C 125.898438 287.164062 121.859375 290.886719 112.488281 286.589844 L 108.3125 206.441406 L 102.597656 151.121094 L 132.242188 151.121094 "/><path style="fill:none;stroke-width:42.991001;stroke-linecap:round;stroke-linejoin:round;stroke:rgb(11.369324%,11.759949%,19.60907%);stroke-opacity:1;stroke-miterlimit:10;" d="M 5766.712827 10747.565397 C 5537.501052 10547.083392 5371.720304 10549.017302 5290.872623 10424.387545 C 5219.485842 10314.154674 5294.31295 10153.855022 5266.360295 10034.597238 C 4977.157821 8804.845347 4740.635352 7991.098988 4554.427663 6801.52945 L 4298.768376 4719.138121 " transform="matrix(0.0181669,0,0,-0.0181788,17.479015,342.249417)"/><path style=" stroke:none;fill-rule:nonzero;fill:rgb(97.24884%,63.139343%,56.079102%);fill-opacity:1;" d="M 97.039062 32.472656 C 97.003906 34.746094 98.265625 37.320312 100.308594 38.265625 C 103.078125 39.546875 104.148438 37.003906 104.148438 34.511719 C 104.152344 32.507812 103.269531 29.050781 101 28.335938 C 98.855469 27.664062 97.066406 30.605469 97.039062 32.472656 "/><path style=" stroke:none;fill-rule:nonzero;fill:rgb(97.24884%,63.139343%,56.079102%);fill-opacity:1;" d="M 101.515625 37.78125 L 115.121094 37.789062 L 115.105469 54.714844 L 101.503906 54.703125 L 101.515625 37.78125 "/><path style=" stroke:none;fill-rule:nonzero;fill:rgb(96.078491%,48.629761%,43.139648%);fill-opacity:1;" d="M 105.664062 47.152344 C 104.296875 44.285156 103.488281 41.386719 103.714844 37.78125 L 115.121094 37.789062 L 115.109375 52.5 C 111.527344 51.949219 107.117188 50.203125 105.664062 47.152344 "/><path style=" stroke:none;fill-rule:nonzero;fill:rgb(97.24884%,63.139343%,56.079102%);fill-opacity:1;" d="M 121.210938 57.246094 L 115.09375 52.679688 L 101.5 52.679688 L 94.160156 57.246094 L 121.210938 57.246094 "/><path style=" stroke:none;fill-rule:nonzero;fill:rgb(25.099182%,36.079407%,70.199585%);fill-opacity:1;" d="M 132.582031 102.28125 C 132.742188 110.6875 133.558594 117.191406 133.714844 125.597656 C 133.804688 130.546875 134.71875 147.179688 133.179688 153.425781 C 131.589844 159.902344 129.40625 148.476562 124.070312 147.160156 C 122.832031 146.855469 121.625 146.429688 120.386719 146.144531 C 115.652344 145.058594 112.28125 149.351562 107.902344 150.640625 C 103.621094 151.898438 99.21875 153.824219 94.871094 154.53125 C 90.253906 155.285156 85.007812 154.011719 80.550781 152.660156 C 76.0625 151.296875 75.578125 150 76.410156 145.910156 C 76.804688 143.980469 76.828125 141.894531 77.035156 139.933594 C 77.636719 134.164062 78.238281 128.390625 78.835938 122.621094 C 79.632812 114.984375 79.34375 106.160156 81.324219 98.726562 L 78.347656 67.464844 C 77.304688 61.210938 82.785156 59.183594 82.785156 59.183594 L 100.460938 51.765625 C 108.15625 57.566406 115.121094 51.683594 115.121094 51.683594 L 124.101562 55.675781 C 124.101562 55.675781 128.789062 58.214844 129.765625 66.226562 L 132.582031 102.28125 "/><path style="fill:none;stroke-width:42.991001;stroke-linecap:round;stroke-linejoin:round;stroke:rgb(11.369324%,11.759949%,19.60907%);stroke-opacity:1;stroke-miterlimit:10;" d="M 6225.781438 15052.878849 C 6318.455241 14305.315188 6270.290666 14150.387508 6318.455241 13667.554641 C 6366.404797 13187.730078 6369.200062 12617.656382 6390.917125 12136.542546 C 6409.193861 11726.553622 6417.579658 11353.308989 6417.579658 10859.517299 " transform="matrix(0.0181669,0,0,-0.0181788,17.479015,342.249417)"/><path style="fill:none;stroke-width:42.991001;stroke-linecap:round;stroke-linejoin:round;stroke:rgb(11.369324%,11.759949%,19.60907%);stroke-opacity:1;stroke-miterlimit:10;" d="M 4759.98719 12355.074377 C 4678.709469 11905.11798 4296.18813 11547.989264 3907.431199 11355.672657 " transform="matrix(0.0181669,0,0,-0.0181788,17.479015,342.249417)"/><path style="fill:none;stroke-width:42.991001;stroke-linecap:round;stroke-linejoin:round;stroke:rgb(11.369324%,11.759949%,19.60907%);stroke-opacity:1;stroke-miterlimit:10;" d="M 4524.754844 11620.188572 C 4544.321703 11550.138053 4553.567581 11224.596534 4505.187985 11208.695496 " transform="matrix(0.0181669,0,0,-0.0181788,17.479015,342.249417)"/><path style="fill:none;stroke-width:42.991001;stroke-linecap:round;stroke-linejoin:round;stroke:rgb(11.369324%,11.759949%,19.60907%);stroke-opacity:1;stroke-miterlimit:10;" d="M 3685.100078 13679.802738 C 3616.078522 13214.58994 3660.80277 12876.585445 3576.084722 11680.784419 C 3551.787414 11338.697225 3502.547736 11065.371276 3448.79263 10656.886505 " transform="matrix(0.0181669,0,0,-0.0181788,17.479015,342.249417)"/><path style=" stroke:none;fill-rule:nonzero;fill:rgb(97.24884%,63.139343%,56.079102%);fill-opacity:1;" d="M 60.9375 113.65625 C 63.695312 115.398438 68.46875 114.902344 69.824219 112.625 C 78.683594 97.71875 85.734375 83.996094 86.003906 78.761719 C 86.449219 77.761719 84.066406 69.128906 76.433594 74.78125 C 72.761719 77.738281 59.261719 99.839844 56.148438 106.703125 C 56.148438 106.703125 54.808594 110.351562 60.9375 113.65625 "/><path style=" stroke:none;fill-rule:nonzero;fill:rgb(25.099182%,36.079407%,70.199585%);fill-opacity:1;" d="M 57.386719 95.828125 C 63.113281 86.433594 72.453125 67.957031 72.453125 67.957031 C 80.421875 55.851562 91.4375 59.472656 91.4375 59.472656 C 91.4375 59.472656 97.242188 66.917969 95.167969 72.117188 C 95.167969 72.117188 90.90625 86.679688 76.5 108.835938 C 67.929688 105.402344 60.316406 99.683594 57.386719 95.828125 "/><path style=" stroke:none;fill-rule:nonzero;fill:rgb(97.24884%,63.139343%,56.079102%);fill-opacity:1;" d="M 56.121094 106.417969 C 56.804688 121.800781 67.292969 138.929688 80.148438 157.453125 L 83.558594 155.894531 C 82.566406 152.097656 68.21875 116.601562 69.824219 112.625 C 69.824219 112.625 66.644531 103.886719 56.121094 106.417969 "/><path style=" stroke:none;fill-rule:nonzero;fill:rgb(97.24884%,63.139343%,56.079102%);fill-opacity:1;" d="M 81.910156 165.070312 C 79.183594 162 78.671875 158.21875 78.683594 155.738281 C 79.050781 153.09375 80.445312 152.894531 82.191406 152.699219 C 83.40625 152.5625 83.984375 152.902344 84.878906 153.464844 C 85.570312 154.039062 86.800781 154.578125 86.800781 154.578125 C 89.78125 156.160156 91.632812 157.125 91.632812 157.125 C 91.632812 157.125 93.550781 157.902344 93.324219 158.738281 C 92.964844 160.078125 90.824219 159.117188 90.824219 159.117188 L 89.234375 158.644531 C 88.332031 158.34375 88.847656 159.195312 88.847656 159.195312 L 89.601562 160.839844 C 90.511719 163.71875 95.464844 166.21875 95.574219 166.144531 C 92.644531 168.132812 88.226562 163.742188 88.226562 163.742188 C 88.226562 163.742188 90.339844 166.386719 94.015625 167.714844 C 94.015625 167.714844 96.074219 169.332031 93.066406 169.296875 C 93.066406 169.296875 88.261719 168.046875 85.992188 164.625 C 85.992188 164.625 87.105469 167.378906 91.03125 169.308594 C 91.03125 169.308594 91.980469 170.859375 90.046875 170.769531 C 90.046875 170.769531 85.015625 167.679688 84.046875 165.183594 C 84.046875 165.183594 84.960938 167.492188 86.710938 169.203125 C 86.710938 169.203125 86.867188 170.382812 85.578125 169.960938 C 85.578125 169.960938 82.5625 166.964844 81.910156 165.070312 "/><path style="fill:none;stroke-width:42.991001;stroke-linecap:round;stroke-linejoin:round;stroke:rgb(11.369324%,11.759949%,19.60907%);stroke-opacity:1;stroke-miterlimit:10;" d="M 3685.100078 13679.802738 C 4005.480514 14163.709999 4333.601685 14744.74252 4392.517282 15061.903762 C 4392.517282 15061.903762 4439.391734 15323.196493 4265.87025 15555.480574 " transform="matrix(0.0181669,0,0,-0.0181788,17.479015,342.249417)"/><path style=" stroke:none;fill-rule:nonzero;fill:rgb(97.24884%,63.139343%,56.079102%);fill-opacity:1;" d="M 102.722656 38.652344 C 104.019531 41.929688 105.796875 44.621094 108.878906 46.515625 C 111.894531 48.371094 115.007812 49.320312 117.921875 46.917969 C 120.238281 45.007812 121.742188 42.214844 122.585938 39.402344 C 124.527344 32.933594 123.054688 23.972656 118.945312 18.75 C 114.433594 13.019531 105.707031 14.289062 102.328125 20.679688 C 99.578125 25.882812 100.621094 33.367188 102.722656 38.652344 "/><path style="fill:none;stroke-width:41.007999;stroke-linecap:round;stroke-linejoin:round;stroke:rgb(96.078491%,48.629761%,43.139648%);stroke-opacity:1;stroke-miterlimit:10;" d="M 4283.509826 16300.025791 C 4348.339069 16265.690952 4373.902651 16151.445861 4339.954214 16030.047678 " transform="matrix(0.0191007,0,0,-0.0191132,17.479015,342.249417)"/><path style="fill:none;stroke-width:41.207001;stroke-linecap:round;stroke-linejoin:round;stroke:rgb(96.078491%,48.629761%,43.139648%);stroke-opacity:1;stroke-miterlimit:10;" d="M 4251.985128 16274.533015 C 4283.838479 16288.292821 4334.187325 16299.998923 4364.807643 16280.899492 " transform="matrix(0.019008,0,0,-0.0190205,17.479015,342.249417)"/><path style=" stroke:none;fill-rule:nonzero;fill:rgb(96.078491%,48.629761%,43.139648%);fill-opacity:1;" d="M 107.609375 34.128906 C 107.636719 34.640625 108.601562 35.003906 109.757812 34.9375 C 110.914062 34.871094 111.828125 34.402344 111.800781 33.890625 C 111.769531 33.378906 110.808594 33.019531 109.652344 33.085938 C 108.492188 33.152344 107.578125 33.621094 107.609375 34.128906 "/><path style=" stroke:none;fill-rule:nonzero;fill:rgb(96.078491%,48.629761%,43.139648%);fill-opacity:1;" d="M 117.941406 34.132812 C 117.96875 34.640625 118.929688 35.003906 120.085938 34.9375 C 121.246094 34.871094 122.160156 34.402344 122.128906 33.890625 C 122.101562 33.378906 121.140625 33.019531 119.984375 33.085938 C 118.824219 33.152344 117.910156 33.621094 117.941406 34.132812 "/><path style="fill:none;stroke-width:40.643002;stroke-linecap:round;stroke-linejoin:round;stroke:rgb(96.078491%,48.629761%,43.139648%);stroke-opacity:1;stroke-miterlimit:10;" d="M 5101.337822 16300.015773 C 5070.933349 16259.503163 4969.585108 16244.310934 5165.998 15972.876448 C 5213.631674 15906.840894 5092.621873 15881.520513 5029.177874 15899.346061 " transform="matrix(0.0192714,0,0,-0.0192841,17.479015,342.249417)"/><path style="fill:none;stroke-width:52.472;stroke-linecap:round;stroke-linejoin:round;stroke:rgb(77.249146%,27.449036%,16.859436%);stroke-opacity:1;stroke-miterlimit:10;" d="M 5325.015656 16256.402462 C 5291.907636 16275.568263 5206.916926 16299.979441 5110.621038 16241.473311 " transform="matrix(0.0193495,0,0,-0.0193623,17.479015,342.249417)"/><path style="fill:none;stroke-width:52.527;stroke-linecap:round;stroke-linejoin:round;stroke:rgb(77.249146%,27.449036%,16.859436%);stroke-opacity:1;stroke-miterlimit:10;" d="M 4665.856872 16234.83771 C 4716.98485 16282.700772 4817.624112 16300.068803 4880.068955 16253.821372 " transform="matrix(0.0193296,0,0,-0.0193423,17.479015,342.249417)"/><path style="fill:none;stroke-width:40.764;stroke-linecap:round;stroke-linejoin:round;stroke:rgb(11.369324%,11.759949%,19.60907%);stroke-opacity:1;stroke-miterlimit:10;" d="M 4876.468167 16266.05236 C 4853.836585 16299.671756 4774.727992 16300.079264 4757.60139 16262.792297 " transform="matrix(0.0191588,0,0,-0.0191714,17.479015,342.249417)"/><path style="fill:none;stroke-width:40.764;stroke-linecap:round;stroke-linejoin:round;stroke:rgb(11.369324%,11.759949%,19.60907%);stroke-opacity:1;stroke-miterlimit:10;" d="M 5377.829068 16266.05236 C 5355.197486 16299.671756 5276.088893 16300.079264 5258.96229 16262.792297 " transform="matrix(0.0191588,0,0,-0.0191714,17.479015,342.249417)"/><path style="fill:none;stroke-width:42.011002;stroke-linecap:round;stroke-linejoin:round;stroke:rgb(96.078491%,48.629761%,43.139648%);stroke-opacity:1;stroke-miterlimit:10;" d="M 5356.837417 16300.027346 C 5298.803063 16189.688101 5184.200926 16229.050109 5115.900567 16300.027346 " transform="matrix(0.0186447,0,0,-0.0186569,17.479015,342.249417)"/><path style=" stroke:none;fill-rule:nonzero;fill:rgb(3.529358%,16.468811%,30.198669%);fill-opacity:1;" d="M 89.5625 157.0625 C 88.046875 157.3125 87.292969 160.972656 86.054688 161.722656 C 83.039062 163.550781 81.191406 166.496094 81.492188 169.496094 C 81.71875 171.78125 81.421875 174.234375 83.242188 175.824219 C 84.96875 177.332031 87.699219 176.710938 89.820312 176.789062 C 91.726562 176.859375 94.652344 177.386719 96.589844 176.746094 C 99.0625 175.925781 98.917969 173.683594 99.390625 171.316406 C 100.074219 167.910156 99.96875 164.464844 99.976562 160.910156 C 99.980469 158.785156 99.296875 157.386719 97.503906 156.273438 C 94.792969 154.589844 92.4375 156.589844 89.5625 157.0625 "/><path style=" stroke:none;fill-rule:nonzero;fill:rgb(97.24884%,63.139343%,56.079102%);fill-opacity:1;" d="M 159.050781 111.480469 C 167.226562 98.433594 168.320312 78.378906 168.261719 55.824219 L 164.566406 55.167969 C 163.230469 58.855469 154.878906 96.222656 151.300781 98.582031 C 151.300781 98.582031 148.957031 107.578125 159.050781 111.480469 "/><path style=" stroke:none;fill-rule:nonzero;fill:rgb(97.24884%,63.139343%,56.079102%);fill-opacity:1;" d="M 167.171875 38.671875 C 169.835938 38.816406 166.519531 45.660156 166.519531 47.089844 C 167.167969 45.472656 169.171875 39.160156 170.929688 39.332031 C 171.960938 39.527344 169.402344 44.890625 169.128906 45.984375 C 169.699219 45.109375 171.382812 41.28125 172.5625 41.683594 C 173.320312 42.160156 171.453125 45.78125 171.070312 46.972656 C 171.316406 46.765625 173.039062 43.394531 173.554688 44.007812 C 174.101562 44.570312 173.261719 47.082031 172.753906 48.304688 C 170.449219 53.792969 168.0625 59.9375 164.847656 57.414062 C 162.445312 55.53125 161.171875 54.425781 160.242188 45.671875 C 160.082031 44.164062 162.5625 45.382812 163.515625 48.320312 C 164.203125 47.96875 166.855469 38.652344 167.171875 38.671875 "/><path style="fill:none;stroke-width:42.991001;stroke-linecap:round;stroke-linejoin:round;stroke:rgb(11.369324%,11.759949%,19.60907%);stroke-opacity:1;stroke-miterlimit:10;" d="M 8100.759556 16120.612056 C 8155.589765 16055.503752 8186.767727 15991.684722 8118.821272 15862.757387 " transform="matrix(0.0181669,0,0,-0.0181788,17.479015,342.249417)"/><path style="fill:none;stroke-width:40.241001;stroke-linecap:round;stroke-linejoin:round;stroke:rgb(11.369324%,11.759949%,19.60907%);stroke-opacity:1;stroke-miterlimit:10;" d="M 4507.191187 16090.441883 C 4507.191187 15974.785833 4601.185887 15880.853007 4716.918118 15880.853007 C 4832.65035 15880.853007 4926.443777 15974.785833 4926.443777 16090.441883 C 4926.443777 16206.299073 4832.65035 16300.030759 4716.918118 16300.030759 C 4601.185887 16300.030759 4507.191187 16206.299073 4507.191187 16090.441883 Z M 4507.191187 16090.441883 " transform="matrix(0.0194077,0,0,-0.0194205,17.479015,342.249417)"/><path style="fill:none;stroke-width:40.146;stroke-linecap:round;stroke-linejoin:round;stroke:rgb(11.369324%,11.759949%,19.60907%);stroke-opacity:1;stroke-miterlimit:10;" d="M 5028.729266 16090.904799 C 5028.729266 15975.328896 5122.294969 15881.82478 5237.746211 15881.82478 C 5353.197454 15881.82478 5446.963941 15975.328896 5446.963941 16090.904799 C 5446.963941 16206.480703 5353.197454 16299.984819 5237.746211 16299.984819 C 5122.294969 16299.984819 5028.729266 16206.480703 5028.729266 16090.904799 Z M 5028.729266 16090.904799 " transform="matrix(0.0194549,0,0,-0.0194677,17.479015,342.249417)"/><path style="fill:none;stroke-width:40.452999;stroke-linecap:round;stroke-linejoin:round;stroke:rgb(11.369324%,11.759949%,19.60907%);stroke-opacity:1;stroke-miterlimit:10;" d="M 5057.21325 16235.285099 C 5057.21325 16235.285099 5020.186114 16299.98938 4943.501498 16235.285099 " transform="matrix(0.0193059,0,0,-0.0193187,17.479015,342.249417)"/><path style="fill:none;stroke-width:40.821999;stroke-linecap:butt;stroke-linejoin:miter;stroke:rgb(11.369324%,11.759949%,19.60907%);stroke-opacity:1;stroke-miterlimit:10;" d="M 4572.24606 16300.037341 L 4388.689551 16246.577771 " transform="matrix(0.0191315,0,0,-0.0191441,17.479015,342.249417)"/><path style=" stroke:none;fill-rule:nonzero;fill:rgb(77.249146%,27.449036%,16.859436%);fill-opacity:1;" d="M 118.871094 21.179688 C 117.363281 20.546875 116.292969 19.511719 114.597656 19.699219 C 112.789062 19.898438 112.53125 21.980469 110.515625 22.039062 C 109.152344 22.074219 106.824219 20.339844 105.71875 20.984375 C 104.917969 21.449219 104.828125 22.777344 104.734375 23.601562 C 104.601562 24.796875 104.015625 25.015625 103.394531 25.964844 C 102.300781 27.636719 101.984375 29.746094 101.890625 31.695312 C 100.476562 31.261719 101.222656 29.65625 100.367188 28.851562 C 98.84375 27.417969 97.625 29.390625 97.382812 30.460938 C 95.636719 30.195312 96.230469 26.675781 96.335938 25.683594 C 96.507812 24.066406 96.261719 22.386719 96.339844 20.703125 C 96.472656 17.882812 99.851562 14.433594 102.6875 13.441406 C 103.519531 13.148438 104.339844 13.335938 105.203125 13.125 C 106.179688 12.886719 106.820312 12.230469 107.394531 11.484375 C 108.886719 9.550781 111.339844 9.332031 113.519531 10.191406 C 114.589844 10.613281 115.882812 11.191406 116.722656 11.972656 C 117.359375 12.566406 117.871094 13.714844 118.789062 13.933594 C 119.71875 14.15625 120.113281 13.753906 120.964844 14.613281 C 121.507812 15.160156 122 15.886719 122.1875 16.589844 C 122.703125 18.484375 121.410156 22.246094 118.871094 21.179688 "/></g></svg>