<?xml version="1.0" encoding="UTF-8"?><svg xmlns="http://www.w3.org/2000/svg" xmlns:xlink="http://www.w3.org/1999/xlink" width="419.25pt" zoomAndPan="magnify" viewBox="0 0 419.25 297.75" height="297.75pt" preserveAspectRatio="xMidYMid meet" version="1.2"><defs><clipPath xml:id="clip1" id="clip1"><path d="M 108.015625 49.164062 L 309.644531 49.164062 L 309.644531 250.792969 L 108.015625 250.792969 Z M 108.015625 49.164062 "/></clipPath><clipPath xml:id="clip2" id="clip2"><path d="M 295 123 L 309.644531 123 L 309.644531 141 L 295 141 Z M 295 123 "/></clipPath></defs><g xml:id="surface1" id="surface1"><g clip-rule="nonzero" clip-path="url(#clip1)"><path style=" stroke:none;fill-rule:nonzero;fill:rgb(57.649231%,77.249146%,89.408875%);fill-opacity:1;" d="M 309.378906 149.976562 C 309.378906 205.617188 264.335938 250.660156 208.699219 250.660156 C 153.058594 250.660156 108.015625 205.617188 108.015625 149.976562 C 108.015625 94.339844 153.058594 49.296875 208.699219 49.296875 C 235.457031 49.296875 259.832031 59.761719 277.851562 76.851562 C 279.574219 78.441406 281.160156 80.164062 282.882812 81.886719 C 293.21875 93.144531 301.035156 106.660156 305.40625 121.761719 C 305.933594 123.617188 306.464844 125.46875 306.863281 127.324219 C 308.585938 134.609375 309.378906 142.160156 309.378906 149.976562 Z M 309.378906 149.976562 "/></g><path style=" stroke:none;fill-rule:nonzero;fill:rgb(85.488892%,28.62854%,26.669312%);fill-opacity:1;" d="M 282.621094 139.910156 C 282.621094 139.910156 246.320312 167.730469 233.46875 162.296875 C 219.5625 156.46875 229.894531 147.992188 229.894531 147.992188 C 229.894531 147.992188 216.910156 150.375 211.878906 145.078125 C 206.84375 139.777344 218.765625 132.625 218.765625 132.625 C 218.765625 132.625 207.636719 132.492188 208.699219 125.074219 C 209.757812 117.785156 247.910156 105.597656 247.910156 105.597656 Z M 282.621094 139.910156 "/><path style=" stroke:none;fill-rule:nonzero;fill:rgb(0%,0%,0%);fill-opacity:1;" d="M 189.886719 106.128906 L 181.011719 102.550781 C 178.757812 101.625 176.242188 103.742188 177.035156 106.128906 L 178.890625 112.621094 C 181.804688 112.882812 186.175781 112.222656 189.886719 106.128906 Z M 189.886719 106.128906 "/><path style=" stroke:none;fill-rule:nonzero;fill:rgb(97.24884%,79.998779%,28.239441%);fill-opacity:1;" d="M 203 111.558594 L 189.886719 106.128906 C 186.308594 112.089844 181.804688 112.882812 178.890625 112.488281 L 184.058594 130.503906 L 221.019531 166.140625 L 238.105469 150.242188 Z M 203 111.558594 "/><path style=" stroke:none;fill-rule:nonzero;fill:rgb(85.488892%,28.62854%,26.669312%);fill-opacity:1;" d="M 166.039062 222.972656 C 166.039062 222.972656 206.445312 192.898438 207.242188 178.992188 C 208.167969 163.886719 195.980469 169.453125 195.980469 169.453125 C 195.980469 169.453125 203.796875 158.855469 201.410156 151.964844 C 198.894531 145.078125 187.238281 152.628906 187.238281 152.628906 C 187.238281 152.628906 192.003906 142.691406 184.851562 140.308594 C 177.832031 137.921875 154.914062 168.523438 154.914062 168.523438 C 154.914062 168.523438 157.960938 148.125 149.082031 145.339844 C 138.882812 142.292969 138.484375 157.265625 134.644531 190.914062 Z M 166.039062 222.972656 "/><path style=" stroke:none;fill-rule:nonzero;fill:rgb(0%,0%,0%);fill-opacity:1;" d="M 174.171875 164.148438 L 186.757812 150.886719 L 188.679688 152.710938 L 176.09375 165.972656 Z M 174.171875 164.148438 "/><path style=" stroke:none;fill-rule:nonzero;fill:rgb(0%,0%,0%);fill-opacity:1;" d="M 180.253906 178.472656 L 197.90625 166.503906 L 199.394531 168.695312 L 181.742188 180.664062 Z M 180.253906 178.472656 "/><path style=" stroke:none;fill-rule:nonzero;fill:rgb(85.488892%,28.62854%,26.669312%);fill-opacity:1;" d="M 221.019531 166.140625 C 221.019531 166.140625 235.722656 184.421875 247.25 173.558594 C 257.847656 163.492188 238.105469 150.375 238.105469 150.375 Z M 221.019531 166.140625 "/><path style=" stroke:none;fill-rule:nonzero;fill:rgb(0%,0%,0%);fill-opacity:1;" d="M 201.992188 124.558594 L 203.929688 122.75 L 218.859375 138.710938 L 216.925781 140.523438 Z M 201.992188 124.558594 "/><path style=" stroke:none;fill-rule:nonzero;fill:rgb(0%,0%,0%);fill-opacity:1;" d="M 192.679688 131.03125 L 194.480469 129.089844 L 227.59375 159.816406 L 225.792969 161.757812 Z M 192.679688 131.03125 "/><path style=" stroke:none;fill-rule:nonzero;fill:rgb(0%,0%,0%);fill-opacity:1;" d="M 183.660156 131.429688 C 183.394531 131.429688 183.261719 131.429688 183.128906 131.429688 L 183.527344 128.78125 L 183.394531 130.105469 L 183.527344 128.78125 C 183.925781 128.78125 187.632812 129.046875 188.5625 123.484375 L 188.695312 122.421875 L 189.753906 122.289062 C 190.019531 122.289062 195.183594 121.761719 195.714844 115.535156 L 198.363281 115.800781 C 197.835938 121.761719 193.726562 124.144531 190.945312 124.808594 C 189.621094 130.902344 185.117188 131.429688 183.660156 131.429688 Z M 183.660156 131.429688 "/><path style=" stroke:none;fill-rule:nonzero;fill:rgb(0%,0%,0%);fill-opacity:1;" d="M 220.078125 165.050781 L 233.292969 152.804688 L 235.09375 154.75 L 221.878906 166.996094 Z M 220.078125 165.050781 "/><path style=" stroke:none;fill-rule:nonzero;fill:rgb(0%,0%,0%);fill-opacity:1;" d="M 157.164062 239.53125 L 155.441406 237.542969 L 169.21875 225.753906 L 126.5625 185.214844 C 123.515625 188.527344 115.699219 196.875 113.84375 198.066406 L 112.519531 195.816406 C 113.976562 195.019531 121.261719 187.203125 125.636719 182.566406 L 126.5625 181.507812 L 173.0625 225.886719 Z M 157.164062 239.53125 "/><path style=" stroke:none;fill-rule:nonzero;fill:rgb(85.488892%,28.62854%,26.669312%);fill-opacity:1;" d="M 247.777344 105.597656 C 247.777344 105.597656 205.519531 95.132812 208.960938 130.105469 C 211.746094 157.792969 224.59375 140.570312 227.507812 128.25 Z M 247.777344 105.597656 "/><path style=" stroke:none;fill-rule:nonzero;fill:rgb(0%,0%,0%);fill-opacity:1;" d="M 248.96875 166.140625 C 248.441406 158.058594 237.445312 151.433594 237.445312 151.304688 L 238.769531 149.050781 C 239.300781 149.316406 251.089844 156.46875 251.621094 166.007812 Z M 248.96875 166.140625 "/><path style=" stroke:none;fill-rule:nonzero;fill:rgb(0%,0%,0%);fill-opacity:1;" d="M 219.957031 144.546875 L 218.5 142.292969 L 219.296875 143.355469 L 218.5 142.292969 C 218.765625 142.160156 225.523438 137.523438 225.390625 126.53125 L 228.039062 126.53125 C 228.171875 138.984375 220.355469 144.28125 219.957031 144.546875 Z M 219.957031 144.546875 "/><path style=" stroke:none;fill-rule:nonzero;fill:rgb(97.24884%,79.998779%,28.239441%);fill-opacity:1;" d="M 306.863281 127.324219 C 296.792969 140.570312 285.796875 148.917969 285.796875 148.917969 L 238.105469 98.84375 C 254.800781 90.761719 268.046875 83.34375 277.984375 76.851562 C 279.703125 78.441406 281.292969 80.164062 283.015625 81.886719 C 293.351562 93.144531 301.164062 106.660156 305.539062 121.761719 C 305.933594 123.484375 306.464844 125.46875 306.863281 127.324219 Z M 306.863281 127.324219 "/><g clip-rule="nonzero" clip-path="url(#clip2)"><path style=" stroke:none;fill-rule:nonzero;fill:rgb(0%,0%,0%);fill-opacity:1;" d="M 297.058594 140.570312 L 295.070312 138.851562 C 295.070312 138.71875 301.164062 131.960938 307.523438 123.484375 L 309.644531 125.074219 C 303.285156 133.550781 297.058594 140.441406 297.058594 140.570312 Z M 297.058594 140.570312 "/></g><path style=" stroke:none;fill-rule:nonzero;fill:rgb(0%,0%,0%);fill-opacity:1;" d="M 145.597656 126.347656 L 166.78125 125.644531 L 166.867188 128.292969 L 145.683594 128.992188 Z M 145.597656 126.347656 "/><path style=" stroke:none;fill-rule:nonzero;fill:rgb(0%,0%,0%);fill-opacity:1;" d="M 202.207031 80.691406 L 204.855469 80.691406 L 204.855469 103.613281 L 202.207031 103.613281 Z M 202.207031 80.691406 "/><path style=" stroke:none;fill-rule:nonzero;fill:rgb(0%,0%,0%);fill-opacity:1;" d="M 152.222656 81.667969 L 154.015625 79.714844 L 171.082031 95.410156 L 169.289062 97.359375 Z M 152.222656 81.667969 "/><path style=" stroke:none;fill-rule:nonzero;fill:rgb(0%,0%,0%);fill-opacity:1;" d="M 226.980469 212.878906 L 227.191406 188.636719 L 229.84375 188.660156 L 229.628906 212.902344 Z M 226.980469 212.878906 "/><path style=" stroke:none;fill-rule:nonzero;fill:rgb(0%,0%,0%);fill-opacity:1;" d="M 249.820312 186.832031 L 252.074219 185.4375 L 267.960938 211.128906 L 265.707031 212.523438 Z M 249.820312 186.832031 "/><path style=" stroke:none;fill-rule:nonzero;fill:rgb(0%,0%,0%);fill-opacity:1;" d="M 262.351562 175.679688 L 275.863281 175.679688 L 275.863281 178.328125 L 262.351562 178.328125 Z M 262.351562 175.679688 "/></g></svg>